<svg xmlns="http://www.w3.org/2000/svg" viewBox="0 0 187.84 129.58"><defs><style>.cls-1{fill:#c9b695;}</style></defs><title>Asset 6</title><g id="Layer_2" data-name="Layer 2"><g id="Layer_1-2" data-name="Layer 1"><polygon class="cls-1" points="187.84 3.23 114.63 76.44 187.84 127.49 187.84 3.23"/><polygon class="cls-1" points="0 3.23 0 127.49 73.21 76.44 0 3.23"/><path class="cls-1" d="M108.59,82.32a23.33,23.33,0,0,1-29.34,0c-.61-.5-1.2-1-1.76-1.6l-1-1L5,129.58H182.85l-71.5-49.85-1,1C109.79,81.28,109.2,81.82,108.59,82.32Z"/><path class="cls-1" d="M107.12,77.49,184.61,0H3.23L80.72,77.49A18.69,18.69,0,0,0,107.12,77.49Z"/></g></g></svg>