<svg xmlns="http://www.w3.org/2000/svg" viewBox="0 0 88.11 179"><defs><style>.cls-1{fill:#c9b695;}</style></defs><title>IPHONE</title><g id="Layer_2" data-name="Layer 2"><g id="Layer_1-2" data-name="Layer 1"><path class="cls-1" d="M76.5,0H11.6A11.62,11.62,0,0,0,0,11.61v156A11.62,11.62,0,0,0,9.64,179H78.46a11.62,11.62,0,0,0,9.65-11.43v-156A11.63,11.63,0,0,0,76.5,0ZM39.17,9.58h9.67a1.23,1.23,0,0,1,1.32,1.1,1.24,1.24,0,0,1-1.32,1.1H39.17a1.24,1.24,0,0,1-1.32-1.1A1.23,1.23,0,0,1,39.17,9.58ZM31.92,8.27a2.41,2.41,0,1,1-2.4,2.42A2.41,2.41,0,0,1,31.92,8.27ZM44.06,175.13a6.41,6.41,0,1,1,6.4-6.4A6.41,6.41,0,0,1,44.06,175.13Zm38.33-15.69H5.84a1.62,1.62,0,0,1-1.58-1.65L4.13,21.7a1.62,1.62,0,0,1,1.58-1.65H82.27a1.62,1.62,0,0,1,1.58,1.65L84,157.79A1.63,1.63,0,0,1,82.39,159.44Z"/><path class="cls-1" d="M44.05,164.5a4.23,4.23,0,1,0,4.23,4.23A4.23,4.23,0,0,0,44.05,164.5Z"/></g></g></svg>