<svg xmlns="http://www.w3.org/2000/svg" viewBox="0 0 134.86 134.86"><defs><style>.cls-1{fill:#c9b695;fill-rule:evenodd;}</style></defs><title>LINKEDIN</title><g id="Layer_2" data-name="Layer 2"><g id="Layer_1-2" data-name="Layer 1"><path class="cls-1" d="M0,68.84v66H31.44V44.93H0Zm134.12,3.72c-2.07-17-9.85-27.63-32.85-27.63-13.49,0-22.59,5-26.39,12.16h-.42V44.93H49.39v89.93H75.62V90.27c0-11.75,2.32-23.09,16.72-23.09s15.54,13.41,15.54,23.91v43.77h27V85.47a105.61,105.61,0,0,0-.74-12.91ZM15.72,0A15.72,15.72,0,1,0,31.44,15.72,15.71,15.71,0,0,0,15.72,0Z"/></g></g></svg>