<!-- Generator: Adobe Illustrator 22.0.1, SVG Export Plug-In  -->
<svg version="1.1"
	 xmlns="http://www.w3.org/2000/svg" xmlns:xlink="http://www.w3.org/1999/xlink" xmlns:a="http://ns.adobe.com/AdobeSVGViewerExtensions/3.0/"
	 x="0px" y="0px" width="561px" height="823px" viewBox="0 0 561 823" style="enable-background:new 0 0 561 823;"
	 xml:space="preserve">
<style type="text/css">
	.st0{fill:#C9B694;}
	.st1{fill:#222222;}
	.st2{fill:#FFFFFF;}
	.st3{font-family:'Baskerville';}
	.st4{font-size:40.381px;}
	.st5{font-size:13.4603px;}
	.st6{letter-spacing:2;}
	.st7{letter-spacing:1;}
	.st8{font-size:31.4546px;}
</style>
<defs>
</defs>
<rect class="st0" width="561" height="823"/>
<g>
	<g>
		<path class="st1" d="M114.346,402.822c1.117-1.262,2.247-1.893,3.391-1.893c0.632,0,1.121,0.171,1.47,0.513
			c0.348,0.342,0.522,0.716,0.522,1.124c0,0.868-0.395,1.302-1.184,1.302c-0.434,0-0.809-0.27-1.124-0.809
			c-0.289-0.5-0.591-0.75-0.906-0.75c-0.5,0-1.052,0.342-1.656,1.025c0.683,1.078,1.025,2.222,1.025,3.431
			c0,1.577-0.565,2.971-1.696,4.18c-1.131,1.223-3.036,1.88-5.718,1.972c-2.787,0.092-4.18,0.658-4.18,1.696
			c0,0.487,0.315,0.828,0.946,1.025c0.617,0.21,1.919,0.368,3.903,0.473c2.169,0.105,3.839,0.306,5.009,0.602s2.103,0.89,2.8,1.784
			c0.696,0.894,1.045,1.958,1.045,3.194c0,1.735-0.71,3.135-2.13,4.2c-1.419,1.065-3.464,1.597-6.132,1.597
			c-2.444,0-4.403-0.473-5.876-1.419c-1.472-0.947-2.208-2.143-2.208-3.589c0-0.802,0.21-1.459,0.631-1.972s1.019-0.769,1.794-0.769
			c0.211,0,0.401,0.033,0.572,0.099c-0.815,0.894-1.223,1.84-1.223,2.839c0,1.157,0.542,2.113,1.627,2.869
			c1.084,0.756,2.704,1.134,4.86,1.134c1.919,0,3.414-0.384,4.485-1.153s1.607-1.751,1.607-2.948c0-1.314-0.48-2.241-1.439-2.78
			c-0.96-0.526-2.669-0.841-5.127-0.946c-2.826-0.118-4.66-0.467-5.501-1.045c-0.841-0.565-1.262-1.294-1.262-2.188
			c0-1.722,1.203-2.807,3.608-3.253c-1.249-0.736-2.188-1.578-2.819-2.524c-0.632-0.946-0.947-2.004-0.947-3.174
			c0-1.643,0.647-3.04,1.942-4.19s2.83-1.726,4.604-1.726C111.256,400.752,113.018,401.442,114.346,402.822z M105.473,407.121
			c0,1.696,0.348,2.938,1.045,3.727c0.696,0.789,1.584,1.183,2.662,1.183c0.999,0,1.856-0.391,2.573-1.173
			c0.716-0.782,1.074-2.14,1.074-4.072c0-1.945-0.381-3.286-1.144-4.022c-0.763-0.736-1.624-1.104-2.583-1.104
			c-1.21,0-2.116,0.454-2.721,1.36C105.774,403.927,105.473,405.294,105.473,407.121z"/>
		<path class="st1" d="M120.931,409.447c0-2.471,0.828-4.538,2.484-6.201c1.656-1.663,3.694-2.495,6.113-2.495
			c2.432,0,4.476,0.835,6.132,2.504s2.484,3.733,2.484,6.191c0,2.721-0.842,4.86-2.524,6.418c-1.683,1.558-3.713,2.337-6.092,2.337
			c-2.38,0-4.407-0.792-6.083-2.376S120.931,412.116,120.931,409.447z M124.204,409.546c0,2.866,0.467,4.874,1.4,6.024
			c0.933,1.15,2.24,1.725,3.924,1.725c1.722,0,3.039-0.575,3.953-1.725c0.913-1.15,1.37-3.158,1.37-6.024
			c0-2.839-0.453-4.863-1.36-6.073s-2.229-1.814-3.963-1.814c-1.723,0-3.04,0.602-3.954,1.804
			C124.661,404.666,124.204,406.694,124.204,409.546z"/>
		<path class="st1" d="M141.121,409.447c0-2.471,0.828-4.538,2.484-6.201c1.656-1.663,3.694-2.495,6.113-2.495
			c2.432,0,4.476,0.835,6.132,2.504s2.484,3.733,2.484,6.191c0,2.721-0.842,4.86-2.524,6.418c-1.683,1.558-3.713,2.337-6.092,2.337
			c-2.38,0-4.407-0.792-6.083-2.376S141.121,412.116,141.121,409.447z M144.395,409.546c0,2.866,0.467,4.874,1.4,6.024
			c0.933,1.15,2.24,1.725,3.924,1.725c1.722,0,3.039-0.575,3.953-1.725c0.913-1.15,1.37-3.158,1.37-6.024
			c0-2.839-0.453-4.863-1.36-6.073s-2.229-1.814-3.963-1.814c-1.723,0-3.04,0.602-3.954,1.804
			C144.852,404.666,144.395,406.694,144.395,409.546z"/>
		<path class="st1" d="M174.976,403.118v-6.31c0-1.722-0.022-2.806-0.068-3.253c-0.046-0.447-0.233-0.789-0.562-1.025
			c-0.328-0.236-0.913-0.354-1.755-0.354h-0.414v-0.907c1.591-0.04,3.333-0.315,5.226-0.828h0.414v21.709
			c0,1.88,0.032,3.023,0.099,3.431c0.065,0.408,0.272,0.71,0.621,0.907c0.348,0.197,0.996,0.296,1.942,0.296v0.907
			c-1.906,0.039-3.603,0.21-5.088,0.513c-0.157-0.618-0.236-1.59-0.236-2.918c-0.973,0.973-1.975,1.703-3.007,2.188
			c-1.032,0.486-2.1,0.73-3.204,0.73c-2.09,0-3.894-0.841-5.412-2.524s-2.277-3.72-2.277-6.112c0-2.629,0.775-4.755,2.326-6.379
			c1.551-1.623,3.398-2.435,5.541-2.435c1.091,0,2.123,0.197,3.096,0.592C173.188,401.738,174.108,402.33,174.976,403.118z
			 M174.976,404.262c-0.867-0.749-1.738-1.311-2.612-1.686c-0.874-0.375-1.752-0.562-2.632-0.562c-1.485,0-2.725,0.572-3.717,1.715
			c-0.993,1.144-1.488,3.01-1.488,5.6c0,2.629,0.509,4.568,1.527,5.817c1.019,1.249,2.277,1.873,3.776,1.873
			c0.999,0,1.926-0.237,2.78-0.71c0.854-0.473,1.643-1.183,2.365-2.129V404.262z"/>
		<path class="st1" d="M206.109,403.118v-6.31c0-1.722-0.022-2.806-0.068-3.253c-0.046-0.447-0.233-0.789-0.562-1.025
			c-0.328-0.236-0.913-0.354-1.755-0.354h-0.414v-0.907c1.591-0.04,3.333-0.315,5.226-0.828h0.414v21.709
			c0,1.88,0.032,3.023,0.099,3.431c0.065,0.408,0.272,0.71,0.621,0.907c0.348,0.197,0.996,0.296,1.942,0.296v0.907
			c-1.906,0.039-3.603,0.21-5.088,0.513c-0.157-0.618-0.236-1.59-0.236-2.918c-0.973,0.973-1.975,1.703-3.007,2.188
			c-1.032,0.486-2.1,0.73-3.204,0.73c-2.09,0-3.894-0.841-5.412-2.524s-2.277-3.72-2.277-6.112c0-2.629,0.775-4.755,2.326-6.379
			c1.551-1.623,3.398-2.435,5.541-2.435c1.091,0,2.123,0.197,3.096,0.592C204.322,401.738,205.242,402.33,206.109,403.118z
			 M206.109,404.262c-0.867-0.749-1.738-1.311-2.612-1.686c-0.874-0.375-1.752-0.562-2.632-0.562c-1.485,0-2.725,0.572-3.717,1.715
			c-0.993,1.144-1.488,3.01-1.488,5.6c0,2.629,0.509,4.568,1.527,5.817c1.019,1.249,2.277,1.873,3.776,1.873
			c0.999,0,1.926-0.237,2.78-0.71c0.854-0.473,1.643-1.183,2.365-2.129V404.262z"/>
		<path class="st1" d="M228.114,406.864h-11.259c-0.053,0.776-0.079,1.354-0.079,1.735c0,2.839,0.444,4.972,1.331,6.398
			c0.888,1.426,2.212,2.139,3.974,2.139c2.392,0,4.088-1.071,5.087-3.214h0.946c-0.421,1.341-1.256,2.389-2.504,3.145
			c-1.249,0.755-2.609,1.134-4.082,1.134c-1.367,0-2.658-0.345-3.874-1.035c-1.216-0.69-2.212-1.667-2.987-2.928
			s-1.163-2.793-1.163-4.594c0-2.55,0.749-4.669,2.247-6.359c1.499-1.689,3.372-2.534,5.62-2.534c2.116,0,3.753,0.645,4.909,1.933
			S228.048,405.366,228.114,406.864z M224.663,406.076c0.04-0.302,0.06-0.572,0.06-0.808c0-1.157-0.339-2.054-1.016-2.691
			s-1.508-0.957-2.494-0.957c-2.393,0-3.818,1.486-4.278,4.456H224.663z"/>
		<path class="st1" d="M231.289,418.064v-5.304h0.769c0.894,3.063,2.491,4.594,4.792,4.594c0.998,0,1.744-0.302,2.237-0.907
			s0.739-1.269,0.739-1.992c0-0.841-0.263-1.531-0.788-2.07c-0.539-0.539-1.585-1.189-3.136-1.952c-1.63-0.801-2.8-1.59-3.51-2.366
			c-0.709-0.762-1.064-1.702-1.064-2.82c0-1.064,0.381-2.08,1.144-3.046c0.763-0.966,1.834-1.449,3.214-1.449
			c1.406,0,2.57,0.572,3.49,1.716c0.197-0.197,0.453-0.677,0.769-1.439h0.729v4.988h-0.729c-0.263-1.196-0.771-2.225-1.527-3.086
			c-0.757-0.86-1.646-1.291-2.672-1.291c-0.789,0-1.427,0.243-1.913,0.729s-0.729,1.052-0.729,1.695c0,0.71,0.27,1.321,0.809,1.834
			c0.525,0.526,1.531,1.124,3.017,1.794c2.234,1.013,3.602,1.999,4.102,2.958c0.499,0.973,0.749,1.906,0.749,2.8
			c0,1.407-0.463,2.55-1.39,3.431s-2.094,1.321-3.5,1.321c-1.485,0-2.807-0.611-3.963-1.834c-0.355,0.395-0.645,0.96-0.868,1.696
			H231.289z"/>
		<path class="st1" d="M249.626,400.752v11.259c0,1.722,0.026,2.807,0.079,3.253c0.052,0.447,0.243,0.789,0.571,1.025
			c0.328,0.236,0.914,0.354,1.755,0.354h0.414v0.907h-8.695v-0.907h0.671c0.933,0,1.541-0.134,1.823-0.404s0.447-0.592,0.493-0.966
			s0.069-1.462,0.069-3.263v-4.89c0-1.893-0.089-3.049-0.267-3.47c-0.178-0.42-0.414-0.683-0.71-0.789
			c-0.296-0.105-0.812-0.158-1.548-0.158h-0.532v-0.907c2.34-0.237,4.153-0.585,5.442-1.045H249.626z M245.82,392.51
			c0-0.565,0.2-1.051,0.602-1.459c0.4-0.407,0.884-0.611,1.449-0.611c0.564,0,1.045,0.204,1.439,0.611
			c0.395,0.408,0.592,0.894,0.592,1.459c0,0.579-0.197,1.072-0.592,1.479s-0.875,0.611-1.439,0.611
			c-0.565,0-1.049-0.204-1.449-0.611C246.021,393.582,245.82,393.089,245.82,392.51z"/>
		<path class="st1" d="M267.056,402.822c1.117-1.262,2.247-1.893,3.391-1.893c0.632,0,1.121,0.171,1.47,0.513
			c0.348,0.342,0.522,0.716,0.522,1.124c0,0.868-0.395,1.302-1.184,1.302c-0.434,0-0.809-0.27-1.124-0.809
			c-0.289-0.5-0.591-0.75-0.906-0.75c-0.5,0-1.052,0.342-1.656,1.025c0.683,1.078,1.025,2.222,1.025,3.431
			c0,1.577-0.565,2.971-1.696,4.18c-1.131,1.223-3.036,1.88-5.718,1.972c-2.787,0.092-4.18,0.658-4.18,1.696
			c0,0.487,0.315,0.828,0.946,1.025c0.617,0.21,1.919,0.368,3.903,0.473c2.169,0.105,3.839,0.306,5.009,0.602s2.103,0.89,2.8,1.784
			c0.696,0.894,1.045,1.958,1.045,3.194c0,1.735-0.71,3.135-2.13,4.2c-1.419,1.065-3.464,1.597-6.132,1.597
			c-2.444,0-4.403-0.473-5.876-1.419c-1.472-0.947-2.208-2.143-2.208-3.589c0-0.802,0.21-1.459,0.631-1.972s1.019-0.769,1.794-0.769
			c0.211,0,0.401,0.033,0.572,0.099c-0.815,0.894-1.223,1.84-1.223,2.839c0,1.157,0.542,2.113,1.627,2.869
			c1.084,0.756,2.704,1.134,4.86,1.134c1.919,0,3.414-0.384,4.485-1.153s1.607-1.751,1.607-2.948c0-1.314-0.48-2.241-1.439-2.78
			c-0.96-0.526-2.669-0.841-5.127-0.946c-2.826-0.118-4.66-0.467-5.501-1.045c-0.841-0.565-1.262-1.294-1.262-2.188
			c0-1.722,1.203-2.807,3.608-3.253c-1.249-0.736-2.188-1.578-2.819-2.524c-0.632-0.946-0.947-2.004-0.947-3.174
			c0-1.643,0.647-3.04,1.942-4.19s2.83-1.726,4.604-1.726C263.966,400.752,265.728,401.442,267.056,402.822z M258.183,407.121
			c0,1.696,0.348,2.938,1.045,3.727c0.696,0.789,1.584,1.183,2.662,1.183c0.999,0,1.856-0.391,2.573-1.173
			c0.716-0.782,1.074-2.14,1.074-4.072c0-1.945-0.381-3.286-1.144-4.022c-0.763-0.736-1.624-1.104-2.583-1.104
			c-1.21,0-2.116,0.454-2.721,1.36C258.484,403.927,258.183,405.294,258.183,407.121z"/>
		<path class="st1" d="M277.703,400.752h0.532c0.302,0.815,0.473,1.926,0.513,3.333c0.946-1.117,1.938-1.952,2.978-2.504
			c1.038-0.552,2.122-0.828,3.253-0.828c1.288,0,2.343,0.27,3.165,0.809c0.821,0.539,1.351,1.2,1.587,1.981
			c0.236,0.782,0.354,1.922,0.354,3.421v5.048c0,1.867,0.033,3.004,0.099,3.411c0.066,0.408,0.273,0.713,0.621,0.917
			c0.349,0.204,0.989,0.305,1.923,0.305v0.907h-8.262v-0.907h0.375c0.946,0,1.563-0.138,1.854-0.414
			c0.289-0.276,0.453-0.598,0.492-0.966c0.04-0.368,0.06-1.453,0.06-3.253v-5.206c0-1.275-0.062-2.185-0.188-2.73
			s-0.46-1.029-1.006-1.449c-0.545-0.421-1.238-0.631-2.08-0.631c-0.959,0-1.876,0.286-2.75,0.858
			c-0.875,0.572-1.699,1.43-2.475,2.573v6.585c0,1.867,0.036,3.004,0.108,3.411c0.072,0.408,0.282,0.713,0.631,0.917
			c0.348,0.204,0.996,0.305,1.942,0.305v0.907h-8.163v-0.907c0.907,0,1.538-0.092,1.893-0.276c0.355-0.184,0.575-0.463,0.661-0.838
			c0.085-0.375,0.128-1.548,0.128-3.52V407.2c0-1.879-0.036-3.02-0.108-3.421s-0.283-0.703-0.631-0.907
			c-0.349-0.204-0.996-0.306-1.942-0.306v-0.907C274.712,401.501,276.191,401.199,277.703,400.752z"/>
		<path class="st1" d="M310.197,400.752v11.259c0,1.722,0.026,2.807,0.079,3.253c0.052,0.447,0.243,0.789,0.571,1.025
			c0.328,0.236,0.914,0.354,1.755,0.354h0.414v0.907h-8.695v-0.907h0.671c0.933,0,1.541-0.134,1.823-0.404s0.447-0.592,0.493-0.966
			s0.069-1.462,0.069-3.263v-4.89c0-1.893-0.089-3.049-0.267-3.47c-0.178-0.42-0.414-0.683-0.71-0.789
			c-0.296-0.105-0.812-0.158-1.548-0.158h-0.532v-0.907c2.34-0.237,4.153-0.585,5.442-1.045H310.197z M306.392,392.51
			c0-0.565,0.2-1.051,0.602-1.459c0.4-0.407,0.884-0.611,1.449-0.611c0.564,0,1.045,0.204,1.439,0.611
			c0.395,0.408,0.592,0.894,0.592,1.459c0,0.579-0.197,1.072-0.592,1.479s-0.875,0.611-1.439,0.611
			c-0.565,0-1.049-0.204-1.449-0.611C306.592,393.582,306.392,393.089,306.392,392.51z"/>
		<path class="st1" d="M315.423,418.064v-5.304h0.769c0.894,3.063,2.491,4.594,4.792,4.594c0.998,0,1.744-0.302,2.237-0.907
			s0.739-1.269,0.739-1.992c0-0.841-0.263-1.531-0.788-2.07c-0.539-0.539-1.585-1.189-3.136-1.952c-1.63-0.801-2.8-1.59-3.51-2.366
			c-0.709-0.762-1.064-1.702-1.064-2.82c0-1.064,0.381-2.08,1.144-3.046c0.763-0.966,1.834-1.449,3.214-1.449
			c1.406,0,2.57,0.572,3.49,1.716c0.197-0.197,0.453-0.677,0.769-1.439h0.729v4.988h-0.729c-0.263-1.196-0.771-2.225-1.527-3.086
			c-0.757-0.86-1.646-1.291-2.672-1.291c-0.789,0-1.427,0.243-1.913,0.729s-0.729,1.052-0.729,1.695c0,0.71,0.27,1.321,0.809,1.834
			c0.525,0.526,1.531,1.124,3.017,1.794c2.234,1.013,3.602,1.999,4.102,2.958c0.499,0.973,0.749,1.906,0.749,2.8
			c0,1.407-0.463,2.55-1.39,3.431s-2.094,1.321-3.5,1.321c-1.485,0-2.807-0.611-3.963-1.834c-0.355,0.395-0.645,0.96-0.868,1.696
			H315.423z"/>
		<path class="st1" d="M338.846,409.447c0-2.471,0.828-4.538,2.484-6.201c1.656-1.663,3.694-2.495,6.113-2.495
			c2.432,0,4.476,0.835,6.132,2.504s2.484,3.733,2.484,6.191c0,2.721-0.842,4.86-2.524,6.418c-1.683,1.558-3.713,2.337-6.092,2.337
			c-2.38,0-4.407-0.792-6.083-2.376S338.846,412.116,338.846,409.447z M342.119,409.546c0,2.866,0.467,4.874,1.4,6.024
			c0.933,1.15,2.24,1.725,3.924,1.725c1.722,0,3.039-0.575,3.953-1.725c0.913-1.15,1.37-3.158,1.37-6.024
			c0-2.839-0.453-4.863-1.36-6.073s-2.229-1.814-3.963-1.814c-1.723,0-3.04,0.602-3.954,1.804
			C342.576,404.666,342.119,406.694,342.119,409.546z"/>
		<path class="st1" d="M361.423,418.202h-0.77v-21.61c0-1.577-0.043-2.596-0.128-3.056c-0.086-0.46-0.303-0.802-0.65-1.025
			c-0.349-0.223-0.957-0.335-1.824-0.335v-0.907c0.775,0,1.709-0.092,2.8-0.276s1.834-0.368,2.229-0.552h0.414v12.777
			c0.92-0.828,1.853-1.446,2.8-1.854c0.946-0.407,1.905-0.611,2.878-0.611c2.327,0,4.232,0.809,5.719,2.425
			c1.485,1.617,2.228,3.681,2.228,6.191c0,2.524-0.763,4.627-2.287,6.31c-1.525,1.683-3.503,2.524-5.935,2.524
			c-1.196,0-2.245-0.25-3.146-0.75s-1.653-1.242-2.257-2.228C362.638,416.079,361.948,417.072,361.423,418.202z M363.493,404.38
			v6.33c0,1.63,0.108,2.803,0.325,3.52s0.739,1.403,1.567,2.061s1.794,0.986,2.898,0.986c1.695,0,3.046-0.697,4.052-2.09
			c1.006-1.393,1.509-3.398,1.509-6.014c0-2.405-0.471-4.236-1.41-5.491c-0.94-1.255-2.192-1.883-3.756-1.883
			c-0.895,0-1.771,0.213-2.633,0.641S364.334,403.513,363.493,404.38z"/>
		<path class="st1" d="M387.982,418.202h-1.144l-5.738-12.955c-0.565-1.249-1.012-2.043-1.341-2.386
			c-0.328-0.342-0.867-0.525-1.616-0.552v-0.907h7.295v0.907c-0.802,0-1.351,0.066-1.646,0.197c-0.296,0.132-0.443,0.381-0.443,0.75
			c0,0.289,0.263,0.993,0.789,2.11l4.357,9.799l3.924-8.735c0.617-1.393,0.926-2.3,0.926-2.721c0-0.881-0.657-1.348-1.972-1.4
			v-0.907h5.442v0.907c-0.67,0.04-1.232,0.319-1.686,0.838c-0.454,0.519-1.088,1.686-1.903,3.5L387.982,418.202z"/>
		<path class="st1" d="M403.204,400.752v11.259c0,1.722,0.026,2.807,0.079,3.253c0.052,0.447,0.243,0.789,0.571,1.025
			c0.328,0.236,0.914,0.354,1.755,0.354h0.414v0.907h-8.695v-0.907h0.671c0.933,0,1.541-0.134,1.823-0.404s0.447-0.592,0.493-0.966
			s0.069-1.462,0.069-3.263v-4.89c0-1.893-0.089-3.049-0.267-3.47c-0.178-0.42-0.414-0.683-0.71-0.789
			c-0.296-0.105-0.812-0.158-1.548-0.158h-0.532v-0.907c2.34-0.237,4.153-0.585,5.442-1.045H403.204z M399.398,392.51
			c0-0.565,0.2-1.051,0.602-1.459c0.4-0.407,0.884-0.611,1.449-0.611c0.564,0,1.045,0.204,1.439,0.611
			c0.395,0.408,0.592,0.894,0.592,1.459c0,0.579-0.197,1.072-0.592,1.479s-0.875,0.611-1.439,0.611
			c-0.565,0-1.049-0.204-1.449-0.611C399.599,393.582,399.398,393.089,399.398,392.51z"/>
		<path class="st1" d="M408.29,409.447c0-2.471,0.828-4.538,2.484-6.201c1.656-1.663,3.694-2.495,6.113-2.495
			c2.432,0,4.476,0.835,6.132,2.504s2.484,3.733,2.484,6.191c0,2.721-0.842,4.86-2.524,6.418c-1.683,1.558-3.713,2.337-6.092,2.337
			c-2.38,0-4.407-0.792-6.083-2.376S408.29,412.116,408.29,409.447z M411.563,409.546c0,2.866,0.467,4.874,1.4,6.024
			c0.933,1.15,2.24,1.725,3.924,1.725c1.722,0,3.039-0.575,3.953-1.725c0.913-1.15,1.37-3.158,1.37-6.024
			c0-2.839-0.453-4.863-1.36-6.073s-2.229-1.814-3.963-1.814c-1.723,0-3.04,0.602-3.954,1.804
			C412.021,404.666,411.563,406.694,411.563,409.546z"/>
		<path class="st1" d="M444.531,401.403v10.588c0,1.761,0.025,2.866,0.078,3.312s0.247,0.782,0.582,1.005
			c0.335,0.224,0.937,0.335,1.804,0.335v0.907c-1.998,0.026-3.457,0.237-4.377,0.631h-0.236c-0.421-0.723-0.645-1.972-0.671-3.746
			c-0.802,1.249-1.719,2.188-2.75,2.819c-1.032,0.631-2.173,0.947-3.421,0.947c-1.078,0-2.031-0.247-2.859-0.74
			c-0.828-0.493-1.396-1.094-1.705-1.804c-0.31-0.709-0.464-1.781-0.464-3.214v-5.501c0-1.866-0.033-3.007-0.099-3.421
			s-0.272-0.72-0.621-0.917s-0.989-0.296-1.922-0.296v-0.907h5.481v11.199c0,1.104,0.065,1.906,0.196,2.406
			c0.132,0.5,0.467,0.937,1.006,1.311s1.163,0.562,1.873,0.562c1.013,0,1.979-0.332,2.898-0.996c0.92-0.664,1.548-1.367,1.883-2.11
			c0.336-0.743,0.503-1.804,0.503-3.184v-3.648c0-1.761-0.02-2.833-0.059-3.214c-0.04-0.381-0.207-0.713-0.503-0.996
			s-0.91-0.424-1.844-0.424h-0.414v-0.907H444.531z"/>
		<path class="st1" d="M449.658,418.064v-5.304h0.769c0.894,3.063,2.491,4.594,4.792,4.594c0.998,0,1.744-0.302,2.237-0.907
			s0.739-1.269,0.739-1.992c0-0.841-0.263-1.531-0.788-2.07c-0.539-0.539-1.585-1.189-3.136-1.952c-1.63-0.801-2.8-1.59-3.51-2.366
			c-0.709-0.762-1.064-1.702-1.064-2.82c0-1.064,0.381-2.08,1.144-3.046c0.763-0.966,1.834-1.449,3.214-1.449
			c1.406,0,2.57,0.572,3.49,1.716c0.197-0.197,0.453-0.677,0.769-1.439h0.729v4.988h-0.729c-0.263-1.196-0.771-2.225-1.527-3.086
			c-0.757-0.86-1.646-1.291-2.672-1.291c-0.789,0-1.427,0.243-1.913,0.729s-0.729,1.052-0.729,1.695c0,0.71,0.27,1.321,0.809,1.834
			c0.525,0.526,1.531,1.124,3.017,1.794c2.234,1.013,3.602,1.999,4.102,2.958c0.499,0.973,0.749,1.906,0.749,2.8
			c0,1.407-0.463,2.55-1.39,3.431s-2.094,1.321-3.5,1.321c-1.485,0-2.807-0.611-3.963-1.834c-0.355,0.395-0.645,0.96-0.868,1.696
			H449.658z"/>
		<path class="st1" d="M82.838,453.298c1.117-1.262,2.247-1.893,3.391-1.893c0.632,0,1.121,0.171,1.47,0.513
			c0.348,0.342,0.522,0.716,0.522,1.124c0,0.868-0.395,1.302-1.184,1.302c-0.434,0-0.809-0.27-1.124-0.809
			c-0.289-0.5-0.591-0.75-0.906-0.75c-0.5,0-1.052,0.342-1.656,1.025c0.683,1.078,1.025,2.222,1.025,3.431
			c0,1.577-0.565,2.971-1.696,4.18c-1.131,1.223-3.036,1.88-5.718,1.972c-2.787,0.092-4.18,0.658-4.18,1.696
			c0,0.487,0.315,0.828,0.946,1.025c0.617,0.21,1.919,0.368,3.903,0.473c2.169,0.105,3.839,0.306,5.009,0.602s2.103,0.89,2.8,1.784
			c0.696,0.894,1.045,1.958,1.045,3.194c0,1.735-0.71,3.135-2.13,4.2c-1.419,1.065-3.464,1.597-6.132,1.597
			c-2.444,0-4.403-0.473-5.876-1.419c-1.472-0.947-2.208-2.143-2.208-3.589c0-0.802,0.21-1.459,0.631-1.972s1.019-0.769,1.794-0.769
			c0.211,0,0.401,0.033,0.572,0.099c-0.815,0.894-1.223,1.84-1.223,2.839c0,1.157,0.542,2.113,1.627,2.869
			c1.084,0.756,2.704,1.134,4.86,1.134c1.919,0,3.414-0.384,4.485-1.153s1.607-1.751,1.607-2.948c0-1.314-0.48-2.241-1.439-2.78
			c-0.96-0.526-2.669-0.841-5.127-0.946c-2.826-0.118-4.66-0.467-5.501-1.045c-0.841-0.565-1.262-1.294-1.262-2.188
			c0-1.722,1.203-2.807,3.608-3.253c-1.249-0.736-2.188-1.578-2.819-2.524c-0.632-0.946-0.947-2.004-0.947-3.174
			c0-1.643,0.647-3.04,1.942-4.19s2.83-1.726,4.604-1.726C79.748,451.228,81.51,451.918,82.838,453.298z M73.965,457.597
			c0,1.696,0.348,2.938,1.045,3.727c0.696,0.789,1.584,1.183,2.662,1.183c0.999,0,1.856-0.391,2.573-1.173
			c0.716-0.782,1.074-2.14,1.074-4.072c0-1.945-0.381-3.286-1.144-4.022c-0.763-0.736-1.624-1.104-2.583-1.104
			c-1.21,0-2.116,0.454-2.721,1.36C74.267,454.403,73.965,455.77,73.965,457.597z"/>
		<path class="st1" d="M95.378,455.349c0.446-1.17,1.173-2.149,2.179-2.938s1.988-1.183,2.947-1.183c0.868,0,1.552,0.27,2.051,0.809
			c0.5,0.539,0.75,1.091,0.75,1.656c0,0.381-0.129,0.71-0.385,0.986c-0.257,0.276-0.569,0.414-0.937,0.414
			c-0.657,0-1.157-0.486-1.499-1.459c-0.236-0.657-0.591-0.986-1.064-0.986c-0.565,0-1.242,0.384-2.031,1.153
			c-0.788,0.769-1.295,1.567-1.518,2.396c-0.224,0.828-0.336,1.965-0.336,3.411v2.879c0,1.722,0.023,2.807,0.069,3.253
			s0.233,0.789,0.562,1.025c0.328,0.236,0.913,0.354,1.755,0.354h0.552v0.907h-8.577v-0.907h0.414c0.789,0,1.351-0.108,1.686-0.325
			c0.336-0.217,0.536-0.522,0.602-0.917c0.065-0.394,0.099-1.524,0.099-3.391v-4.555c0-1.735-0.023-2.823-0.069-3.263
			s-0.233-0.782-0.562-1.025c-0.329-0.243-0.914-0.365-1.755-0.365h-0.414v-0.887c1.235-0.145,2.853-0.532,4.851-1.164
			C95.128,452.267,95.339,453.641,95.378,455.349z"/>
		<path class="st1" d="M119.117,457.34h-11.259c-0.053,0.776-0.079,1.354-0.079,1.735c0,2.839,0.444,4.972,1.331,6.398
			c0.888,1.426,2.212,2.139,3.974,2.139c2.392,0,4.088-1.071,5.087-3.214h0.946c-0.421,1.341-1.256,2.389-2.504,3.145
			c-1.249,0.755-2.609,1.134-4.082,1.134c-1.367,0-2.658-0.345-3.874-1.035c-1.216-0.69-2.212-1.667-2.987-2.928
			s-1.163-2.793-1.163-4.594c0-2.55,0.749-4.669,2.247-6.359c1.499-1.689,3.372-2.534,5.62-2.534c2.116,0,3.753,0.645,4.909,1.933
			S119.051,455.842,119.117,457.34z M115.666,456.552c0.04-0.302,0.06-0.572,0.06-0.808c0-1.157-0.339-2.054-1.016-2.691
			s-1.508-0.957-2.494-0.957c-2.393,0-3.818,1.486-4.278,4.456H115.666z"/>
		<path class="st1" d="M138.44,465.07h0.729c-0.118,2.248-1.223,3.372-3.312,3.372c-0.895,0-1.601-0.237-2.12-0.71
			c-0.519-0.473-0.857-1.176-1.015-2.109c-1.315,0.933-2.515,1.636-3.599,2.109c-1.085,0.473-2.054,0.71-2.908,0.71
			c-1.092,0-2.031-0.315-2.82-0.946c-0.788-0.631-1.183-1.466-1.183-2.504c0-1.354,0.66-2.537,1.981-3.549s3.146-1.998,5.472-2.958
			l3.057-1.242v-0.789c0-1.117-0.073-1.925-0.218-2.425c-0.145-0.499-0.519-0.946-1.123-1.34c-0.605-0.395-1.4-0.592-2.386-0.592
			c-1.972,0-3.07,0.658-3.293,1.972c-0.211,1.341-0.763,2.011-1.656,2.011c-0.802,0-1.203-0.381-1.203-1.144
			c0-0.749,0.532-1.554,1.598-2.416c1.064-0.861,2.721-1.292,4.969-1.292c1.669,0,2.964,0.263,3.884,0.789s1.528,1.124,1.824,1.794
			s0.443,1.696,0.443,3.076v6.526c0,1.525,0.079,2.504,0.236,2.938c0.158,0.434,0.5,0.65,1.025,0.65
			C137.691,467.002,138.229,466.358,138.44,465.07z M132.723,458.168l-2.149,0.868c-3.392,1.38-5.087,3.115-5.087,5.206
			c0,0.828,0.217,1.495,0.65,2.001c0.434,0.506,0.999,0.759,1.695,0.759c0.618,0,1.334-0.204,2.149-0.611
			c0.815-0.407,1.729-1.019,2.741-1.833V458.168z"/>
		<path class="st1" d="M150.271,452.786h-4.87v9.76c0,1.499,0.065,2.507,0.197,3.027c0.131,0.519,0.41,0.937,0.838,1.252
			c0.427,0.315,0.884,0.473,1.37,0.473c0.946,0,1.768-0.539,2.465-1.617l0.631,0.375c-0.407,0.868-1.009,1.521-1.804,1.962
			c-0.796,0.44-1.601,0.661-2.416,0.661c-0.946,0-1.777-0.28-2.494-0.838s-1.163-1.212-1.341-1.962
			c-0.177-0.749-0.266-2.063-0.266-3.943v-9.149h-2.347v-0.907c1.078-0.026,2.044-0.479,2.898-1.36s1.4-2.116,1.637-3.707h0.631
			v5.067h4.87V452.786z"/>
		<path class="st1" d="M176.218,453.594v-6.31c0-1.722-0.022-2.806-0.068-3.253c-0.046-0.447-0.233-0.789-0.562-1.025
			c-0.328-0.236-0.913-0.354-1.755-0.354h-0.414v-0.907c1.591-0.04,3.333-0.315,5.226-0.828h0.414v21.709
			c0,1.88,0.032,3.023,0.099,3.431c0.065,0.408,0.272,0.71,0.621,0.907c0.348,0.197,0.996,0.296,1.942,0.296v0.907
			c-1.906,0.039-3.603,0.21-5.088,0.513c-0.157-0.618-0.236-1.59-0.236-2.918c-0.973,0.973-1.975,1.703-3.007,2.188
			c-1.032,0.486-2.1,0.73-3.204,0.73c-2.09,0-3.894-0.841-5.412-2.524s-2.277-3.72-2.277-6.112c0-2.629,0.775-4.755,2.326-6.379
			c1.551-1.623,3.398-2.435,5.541-2.435c1.091,0,2.123,0.197,3.096,0.592C174.431,452.214,175.351,452.806,176.218,453.594z
			 M176.218,454.738c-0.867-0.749-1.738-1.311-2.612-1.686c-0.874-0.375-1.752-0.562-2.632-0.562c-1.485,0-2.725,0.572-3.717,1.715
			c-0.993,1.144-1.488,3.01-1.488,5.6c0,2.629,0.509,4.568,1.527,5.817c1.019,1.249,2.277,1.873,3.776,1.873
			c0.999,0,1.926-0.237,2.78-0.71c0.854-0.473,1.643-1.183,2.365-2.129V454.738z"/>
		<path class="st1" d="M198.224,457.34h-11.259c-0.053,0.776-0.079,1.354-0.079,1.735c0,2.839,0.444,4.972,1.331,6.398
			c0.888,1.426,2.212,2.139,3.974,2.139c2.392,0,4.088-1.071,5.087-3.214h0.946c-0.421,1.341-1.256,2.389-2.504,3.145
			c-1.249,0.755-2.609,1.134-4.082,1.134c-1.367,0-2.658-0.345-3.874-1.035c-1.216-0.69-2.212-1.667-2.987-2.928
			s-1.163-2.793-1.163-4.594c0-2.55,0.749-4.669,2.247-6.359c1.499-1.689,3.372-2.534,5.62-2.534c2.116,0,3.753,0.645,4.909,1.933
			S198.157,455.842,198.224,457.34z M194.772,456.552c0.04-0.302,0.06-0.572,0.06-0.808c0-1.157-0.339-2.054-1.016-2.691
			s-1.508-0.957-2.494-0.957c-2.393,0-3.818,1.486-4.278,4.456H194.772z"/>
		<path class="st1" d="M201.397,468.54v-5.304h0.769c0.894,3.063,2.491,4.594,4.792,4.594c0.998,0,1.744-0.302,2.237-0.907
			s0.739-1.269,0.739-1.992c0-0.841-0.263-1.531-0.788-2.07c-0.539-0.539-1.585-1.189-3.136-1.952c-1.63-0.801-2.8-1.59-3.51-2.366
			c-0.709-0.762-1.064-1.702-1.064-2.82c0-1.064,0.381-2.08,1.144-3.046c0.763-0.966,1.834-1.449,3.214-1.449
			c1.406,0,2.57,0.572,3.49,1.716c0.197-0.197,0.453-0.677,0.769-1.439h0.729v4.988h-0.729c-0.263-1.196-0.771-2.225-1.527-3.086
			c-0.757-0.86-1.646-1.291-2.672-1.291c-0.789,0-1.427,0.243-1.913,0.729s-0.729,1.052-0.729,1.695c0,0.71,0.27,1.321,0.809,1.834
			c0.525,0.526,1.531,1.124,3.017,1.794c2.234,1.013,3.602,1.999,4.102,2.958c0.499,0.973,0.749,1.906,0.749,2.8
			c0,1.407-0.463,2.55-1.39,3.431s-2.094,1.321-3.5,1.321c-1.485,0-2.807-0.611-3.963-1.834c-0.355,0.395-0.645,0.96-0.868,1.696
			H201.397z"/>
		<path class="st1" d="M219.735,451.228v11.259c0,1.722,0.026,2.807,0.079,3.253c0.052,0.447,0.243,0.789,0.571,1.025
			c0.328,0.236,0.914,0.354,1.755,0.354h0.414v0.907h-8.695v-0.907h0.671c0.933,0,1.541-0.134,1.823-0.404s0.447-0.592,0.493-0.966
			s0.069-1.462,0.069-3.263v-4.89c0-1.893-0.089-3.049-0.267-3.47c-0.178-0.42-0.414-0.683-0.71-0.789
			c-0.296-0.105-0.812-0.158-1.548-0.158h-0.532v-0.907c2.34-0.237,4.153-0.585,5.442-1.045H219.735z M215.93,442.986
			c0-0.565,0.2-1.051,0.602-1.459c0.4-0.407,0.884-0.611,1.449-0.611c0.564,0,1.045,0.204,1.439,0.611
			c0.395,0.408,0.592,0.894,0.592,1.459c0,0.579-0.197,1.072-0.592,1.479s-0.875,0.611-1.439,0.611
			c-0.565,0-1.049-0.204-1.449-0.611C216.13,444.058,215.93,443.565,215.93,442.986z"/>
		<path class="st1" d="M237.165,453.298c1.117-1.262,2.247-1.893,3.391-1.893c0.632,0,1.121,0.171,1.47,0.513
			c0.348,0.342,0.522,0.716,0.522,1.124c0,0.868-0.395,1.302-1.184,1.302c-0.434,0-0.809-0.27-1.124-0.809
			c-0.289-0.5-0.591-0.75-0.906-0.75c-0.5,0-1.052,0.342-1.656,1.025c0.683,1.078,1.025,2.222,1.025,3.431
			c0,1.577-0.565,2.971-1.696,4.18c-1.131,1.223-3.036,1.88-5.718,1.972c-2.787,0.092-4.18,0.658-4.18,1.696
			c0,0.487,0.315,0.828,0.946,1.025c0.617,0.21,1.919,0.368,3.903,0.473c2.169,0.105,3.839,0.306,5.009,0.602s2.103,0.89,2.8,1.784
			c0.696,0.894,1.045,1.958,1.045,3.194c0,1.735-0.71,3.135-2.13,4.2c-1.419,1.065-3.464,1.597-6.132,1.597
			c-2.444,0-4.403-0.473-5.876-1.419c-1.472-0.947-2.208-2.143-2.208-3.589c0-0.802,0.21-1.459,0.631-1.972s1.019-0.769,1.794-0.769
			c0.211,0,0.401,0.033,0.572,0.099c-0.815,0.894-1.223,1.84-1.223,2.839c0,1.157,0.542,2.113,1.627,2.869
			c1.084,0.756,2.704,1.134,4.86,1.134c1.919,0,3.414-0.384,4.485-1.153s1.607-1.751,1.607-2.948c0-1.314-0.48-2.241-1.439-2.78
			c-0.96-0.526-2.669-0.841-5.127-0.946c-2.826-0.118-4.66-0.467-5.501-1.045c-0.841-0.565-1.262-1.294-1.262-2.188
			c0-1.722,1.203-2.807,3.608-3.253c-1.249-0.736-2.188-1.578-2.819-2.524c-0.632-0.946-0.947-2.004-0.947-3.174
			c0-1.643,0.647-3.04,1.942-4.19s2.83-1.726,4.604-1.726C234.075,451.228,235.837,451.918,237.165,453.298z M228.292,457.597
			c0,1.696,0.348,2.938,1.045,3.727c0.696,0.789,1.584,1.183,2.662,1.183c0.999,0,1.856-0.391,2.573-1.173
			c0.716-0.782,1.074-2.14,1.074-4.072c0-1.945-0.381-3.286-1.144-4.022c-0.763-0.736-1.624-1.104-2.583-1.104
			c-1.21,0-2.116,0.454-2.721,1.36C228.594,454.403,228.292,455.77,228.292,457.597z"/>
		<path class="st1" d="M247.812,451.228h0.532c0.302,0.815,0.473,1.926,0.513,3.333c0.946-1.117,1.938-1.952,2.978-2.504
			c1.038-0.552,2.122-0.828,3.253-0.828c1.288,0,2.343,0.27,3.165,0.809c0.821,0.539,1.351,1.2,1.587,1.981
			c0.236,0.782,0.354,1.922,0.354,3.421v5.048c0,1.867,0.033,3.004,0.099,3.411c0.066,0.408,0.273,0.713,0.621,0.917
			c0.349,0.204,0.989,0.305,1.923,0.305v0.907h-8.262v-0.907h0.375c0.946,0,1.563-0.138,1.854-0.414
			c0.289-0.276,0.453-0.598,0.492-0.966c0.04-0.368,0.06-1.453,0.06-3.253v-5.206c0-1.275-0.062-2.185-0.188-2.73
			s-0.46-1.029-1.006-1.449c-0.545-0.421-1.238-0.631-2.08-0.631c-0.959,0-1.876,0.286-2.75,0.858
			c-0.875,0.572-1.699,1.43-2.475,2.573v6.585c0,1.867,0.036,3.004,0.108,3.411c0.072,0.408,0.282,0.713,0.631,0.917
			c0.348,0.204,0.996,0.305,1.942,0.305v0.907h-8.163v-0.907c0.907,0,1.538-0.092,1.893-0.276c0.355-0.184,0.575-0.463,0.661-0.838
			c0.085-0.375,0.128-1.548,0.128-3.52v-4.811c0-1.879-0.036-3.02-0.108-3.421s-0.283-0.703-0.631-0.907
			c-0.349-0.204-0.996-0.306-1.942-0.306v-0.907C244.821,451.978,246.301,451.675,247.812,451.228z"/>
		<path class="st1" d="M280.307,451.228v11.259c0,1.722,0.026,2.807,0.079,3.253c0.052,0.447,0.243,0.789,0.571,1.025
			c0.328,0.236,0.914,0.354,1.755,0.354h0.414v0.907h-8.695v-0.907h0.671c0.933,0,1.541-0.134,1.823-0.404s0.447-0.592,0.493-0.966
			s0.069-1.462,0.069-3.263v-4.89c0-1.893-0.089-3.049-0.267-3.47c-0.178-0.42-0.414-0.683-0.71-0.789
			c-0.296-0.105-0.812-0.158-1.548-0.158h-0.532v-0.907c2.34-0.237,4.153-0.585,5.442-1.045H280.307z M276.501,442.986
			c0-0.565,0.2-1.051,0.602-1.459c0.4-0.407,0.884-0.611,1.449-0.611c0.564,0,1.045,0.204,1.439,0.611
			c0.395,0.408,0.592,0.894,0.592,1.459c0,0.579-0.197,1.072-0.592,1.479s-0.875,0.611-1.439,0.611
			c-0.565,0-1.049-0.204-1.449-0.611C276.701,444.058,276.501,443.565,276.501,442.986z"/>
		<path class="st1" d="M285.531,468.54v-5.304h0.769c0.894,3.063,2.491,4.594,4.792,4.594c0.998,0,1.744-0.302,2.237-0.907
			s0.739-1.269,0.739-1.992c0-0.841-0.263-1.531-0.788-2.07c-0.539-0.539-1.585-1.189-3.136-1.952c-1.63-0.801-2.8-1.59-3.51-2.366
			c-0.709-0.762-1.064-1.702-1.064-2.82c0-1.064,0.381-2.08,1.144-3.046c0.763-0.966,1.834-1.449,3.214-1.449
			c1.406,0,2.57,0.572,3.49,1.716c0.197-0.197,0.453-0.677,0.769-1.439h0.729v4.988h-0.729c-0.263-1.196-0.771-2.225-1.527-3.086
			c-0.757-0.86-1.646-1.291-2.672-1.291c-0.789,0-1.427,0.243-1.913,0.729s-0.729,1.052-0.729,1.695c0,0.71,0.27,1.321,0.809,1.834
			c0.525,0.526,1.531,1.124,3.017,1.794c2.234,1.013,3.602,1.999,4.102,2.958c0.499,0.973,0.749,1.906,0.749,2.8
			c0,1.407-0.463,2.55-1.39,3.431s-2.094,1.321-3.5,1.321c-1.485,0-2.807-0.611-3.963-1.834c-0.355,0.395-0.645,0.96-0.868,1.696
			H285.531z"/>
		<path class="st1" d="M318.538,452.786h-4.87v9.76c0,1.499,0.065,2.507,0.197,3.027c0.131,0.519,0.41,0.937,0.838,1.252
			c0.427,0.315,0.884,0.473,1.37,0.473c0.946,0,1.768-0.539,2.465-1.617l0.631,0.375c-0.407,0.868-1.009,1.521-1.804,1.962
			c-0.796,0.44-1.601,0.661-2.416,0.661c-0.946,0-1.777-0.28-2.494-0.838s-1.163-1.212-1.341-1.962
			c-0.177-0.749-0.266-2.063-0.266-3.943v-9.149h-2.347v-0.907c1.078-0.026,2.044-0.479,2.898-1.36s1.4-2.116,1.637-3.707h0.631
			v5.067h4.87V452.786z"/>
		<path class="st1" d="M325.952,455.349c0.446-1.17,1.173-2.149,2.179-2.938s1.988-1.183,2.947-1.183
			c0.868,0,1.552,0.27,2.051,0.809c0.5,0.539,0.75,1.091,0.75,1.656c0,0.381-0.129,0.71-0.385,0.986
			c-0.257,0.276-0.569,0.414-0.937,0.414c-0.657,0-1.157-0.486-1.499-1.459c-0.236-0.657-0.591-0.986-1.064-0.986
			c-0.565,0-1.242,0.384-2.031,1.153c-0.788,0.769-1.295,1.567-1.518,2.396c-0.224,0.828-0.336,1.965-0.336,3.411v2.879
			c0,1.722,0.023,2.807,0.069,3.253s0.233,0.789,0.562,1.025c0.328,0.236,0.913,0.354,1.755,0.354h0.552v0.907h-8.577v-0.907h0.414
			c0.789,0,1.351-0.108,1.686-0.325c0.336-0.217,0.536-0.522,0.602-0.917c0.065-0.394,0.099-1.524,0.099-3.391v-4.555
			c0-1.735-0.023-2.823-0.069-3.263s-0.233-0.782-0.562-1.025c-0.329-0.243-0.914-0.365-1.755-0.365h-0.414v-0.887
			c1.235-0.145,2.853-0.532,4.851-1.164C325.702,452.267,325.913,453.641,325.952,455.349z"/>
		<path class="st1" d="M351.742,465.07h0.729c-0.118,2.248-1.223,3.372-3.312,3.372c-0.895,0-1.601-0.237-2.12-0.71
			c-0.519-0.473-0.857-1.176-1.015-2.109c-1.315,0.933-2.515,1.636-3.599,2.109c-1.085,0.473-2.054,0.71-2.908,0.71
			c-1.092,0-2.031-0.315-2.82-0.946c-0.788-0.631-1.183-1.466-1.183-2.504c0-1.354,0.66-2.537,1.981-3.549s3.146-1.998,5.472-2.958
			l3.057-1.242v-0.789c0-1.117-0.073-1.925-0.218-2.425c-0.145-0.499-0.519-0.946-1.123-1.34c-0.605-0.395-1.4-0.592-2.386-0.592
			c-1.972,0-3.07,0.658-3.293,1.972c-0.211,1.341-0.763,2.011-1.656,2.011c-0.802,0-1.203-0.381-1.203-1.144
			c0-0.749,0.532-1.554,1.598-2.416c1.064-0.861,2.721-1.292,4.969-1.292c1.669,0,2.964,0.263,3.884,0.789s1.528,1.124,1.824,1.794
			s0.443,1.696,0.443,3.076v6.526c0,1.525,0.079,2.504,0.236,2.938c0.158,0.434,0.5,0.65,1.025,0.65
			C350.993,467.002,351.531,466.358,351.742,465.07z M346.024,458.168l-2.149,0.868c-3.392,1.38-5.087,3.115-5.087,5.206
			c0,0.828,0.217,1.495,0.65,2.001c0.434,0.506,0.999,0.759,1.695,0.759c0.618,0,1.334-0.204,2.149-0.611
			c0.815-0.407,1.729-1.019,2.741-1.833V458.168z"/>
		<path class="st1" d="M358.446,451.228h0.532c0.302,0.815,0.473,1.926,0.513,3.333c0.946-1.117,1.938-1.952,2.978-2.504
			c1.038-0.552,2.122-0.828,3.253-0.828c1.288,0,2.343,0.27,3.165,0.809c0.821,0.539,1.351,1.2,1.587,1.981
			c0.236,0.782,0.354,1.922,0.354,3.421v5.048c0,1.867,0.033,3.004,0.099,3.411c0.066,0.408,0.273,0.713,0.621,0.917
			c0.349,0.204,0.989,0.305,1.923,0.305v0.907h-8.262v-0.907h0.375c0.946,0,1.563-0.138,1.854-0.414
			c0.289-0.276,0.453-0.598,0.492-0.966c0.04-0.368,0.06-1.453,0.06-3.253v-5.206c0-1.275-0.062-2.185-0.188-2.73
			s-0.46-1.029-1.006-1.449c-0.545-0.421-1.238-0.631-2.08-0.631c-0.959,0-1.876,0.286-2.75,0.858
			c-0.875,0.572-1.699,1.43-2.475,2.573v6.585c0,1.867,0.036,3.004,0.108,3.411c0.072,0.408,0.282,0.713,0.631,0.917
			c0.348,0.204,0.996,0.305,1.942,0.305v0.907h-8.163v-0.907c0.907,0,1.538-0.092,1.893-0.276c0.355-0.184,0.575-0.463,0.661-0.838
			c0.085-0.375,0.128-1.548,0.128-3.52v-4.811c0-1.879-0.036-3.02-0.108-3.421s-0.283-0.703-0.631-0.907
			c-0.349-0.204-0.996-0.306-1.942-0.306v-0.907C355.455,451.978,356.935,451.675,358.446,451.228z"/>
		<path class="st1" d="M375.975,468.54v-5.304h0.769c0.894,3.063,2.491,4.594,4.792,4.594c0.998,0,1.744-0.302,2.237-0.907
			s0.739-1.269,0.739-1.992c0-0.841-0.263-1.531-0.788-2.07c-0.539-0.539-1.585-1.189-3.136-1.952c-1.63-0.801-2.8-1.59-3.51-2.366
			c-0.709-0.762-1.064-1.702-1.064-2.82c0-1.064,0.381-2.08,1.144-3.046c0.763-0.966,1.834-1.449,3.214-1.449
			c1.406,0,2.57,0.572,3.49,1.716c0.197-0.197,0.453-0.677,0.769-1.439h0.729v4.988h-0.729c-0.263-1.196-0.771-2.225-1.527-3.086
			c-0.757-0.86-1.646-1.291-2.672-1.291c-0.789,0-1.427,0.243-1.913,0.729s-0.729,1.052-0.729,1.695c0,0.71,0.27,1.321,0.809,1.834
			c0.525,0.526,1.531,1.124,3.017,1.794c2.234,1.013,3.602,1.999,4.102,2.958c0.499,0.973,0.749,1.906,0.749,2.8
			c0,1.407-0.463,2.55-1.39,3.431s-2.094,1.321-3.5,1.321c-1.485,0-2.807-0.611-3.963-1.834c-0.355,0.395-0.645,0.96-0.868,1.696
			H375.975z"/>
		<path class="st1" d="M392.793,451.228h0.532c0.224,0.736,0.336,1.624,0.336,2.662c0.841-0.894,1.744-1.561,2.711-2.001
			c0.966-0.44,1.988-0.661,3.065-0.661c2.235,0,4.095,0.786,5.58,2.356s2.229,3.645,2.229,6.221c0,2.524-0.746,4.634-2.238,6.329
			c-1.492,1.696-3.454,2.544-5.886,2.544c-0.999,0-1.955-0.201-2.868-0.602c-0.914-0.401-1.778-0.996-2.593-1.785v6.132
			c0,1.866,0.035,3.003,0.108,3.411c0.071,0.407,0.278,0.713,0.621,0.917c0.341,0.204,0.979,0.306,1.912,0.306v0.907h-8.438v-0.907
			h0.591c0.934,0,1.541-0.135,1.824-0.404c0.282-0.27,0.446-0.592,0.493-0.966c0.046-0.375,0.068-1.462,0.068-3.263v-14.67
			c0-1.722-0.022-2.806-0.068-3.253c-0.047-0.447-0.233-0.789-0.562-1.025c-0.328-0.237-0.913-0.355-1.755-0.355h-0.591v-0.907
			C389.165,452.083,390.809,451.754,392.793,451.228z M393.661,464.991c0.709,0.868,1.462,1.522,2.257,1.962
			c0.796,0.44,1.634,0.661,2.515,0.661c1.485,0,2.78-0.637,3.884-1.913c1.104-1.275,1.656-3.306,1.656-6.093
			c0-2.418-0.532-4.226-1.597-5.422c-1.065-1.196-2.334-1.794-3.806-1.794c-0.907,0-1.769,0.23-2.583,0.69
			c-0.815,0.46-1.591,1.157-2.326,2.09V464.991z"/>
		<path class="st1" d="M426.628,465.07h0.729c-0.118,2.248-1.223,3.372-3.312,3.372c-0.895,0-1.601-0.237-2.12-0.71
			c-0.519-0.473-0.857-1.176-1.015-2.109c-1.315,0.933-2.515,1.636-3.599,2.109c-1.085,0.473-2.054,0.71-2.908,0.71
			c-1.092,0-2.031-0.315-2.82-0.946c-0.788-0.631-1.183-1.466-1.183-2.504c0-1.354,0.66-2.537,1.981-3.549s3.146-1.998,5.472-2.958
			l3.057-1.242v-0.789c0-1.117-0.073-1.925-0.218-2.425c-0.145-0.499-0.519-0.946-1.123-1.34c-0.605-0.395-1.4-0.592-2.386-0.592
			c-1.972,0-3.07,0.658-3.293,1.972c-0.211,1.341-0.763,2.011-1.656,2.011c-0.802,0-1.203-0.381-1.203-1.144
			c0-0.749,0.532-1.554,1.598-2.416c1.064-0.861,2.721-1.292,4.969-1.292c1.669,0,2.964,0.263,3.884,0.789s1.528,1.124,1.824,1.794
			s0.443,1.696,0.443,3.076v6.526c0,1.525,0.079,2.504,0.236,2.938c0.158,0.434,0.5,0.65,1.025,0.65
			C425.879,467.002,426.417,466.358,426.628,465.07z M420.91,458.168l-2.149,0.868c-3.392,1.38-5.087,3.115-5.087,5.206
			c0,0.828,0.217,1.495,0.65,2.001c0.434,0.506,0.999,0.759,1.695,0.759c0.618,0,1.334-0.204,2.149-0.611
			c0.815-0.407,1.729-1.019,2.741-1.833V458.168z"/>
		<path class="st1" d="M434.495,455.349c0.446-1.17,1.173-2.149,2.179-2.938s1.988-1.183,2.947-1.183
			c0.868,0,1.552,0.27,2.051,0.809c0.5,0.539,0.75,1.091,0.75,1.656c0,0.381-0.129,0.71-0.385,0.986
			c-0.257,0.276-0.569,0.414-0.937,0.414c-0.657,0-1.157-0.486-1.499-1.459c-0.236-0.657-0.591-0.986-1.064-0.986
			c-0.565,0-1.242,0.384-2.031,1.153c-0.788,0.769-1.295,1.567-1.518,2.396c-0.224,0.828-0.336,1.965-0.336,3.411v2.879
			c0,1.722,0.023,2.807,0.069,3.253s0.233,0.789,0.562,1.025c0.328,0.236,0.913,0.354,1.755,0.354h0.552v0.907h-8.577v-0.907h0.414
			c0.789,0,1.351-0.108,1.686-0.325c0.336-0.217,0.536-0.522,0.602-0.917c0.065-0.394,0.099-1.524,0.099-3.391v-4.555
			c0-1.735-0.023-2.823-0.069-3.263s-0.233-0.782-0.562-1.025c-0.329-0.243-0.914-0.365-1.755-0.365h-0.414v-0.887
			c1.235-0.145,2.853-0.532,4.851-1.164C434.245,452.267,434.456,453.641,434.495,455.349z"/>
		<path class="st1" d="M458.235,457.34h-11.259c-0.053,0.776-0.079,1.354-0.079,1.735c0,2.839,0.444,4.972,1.331,6.398
			c0.888,1.426,2.212,2.139,3.974,2.139c2.392,0,4.088-1.071,5.087-3.214h0.946c-0.421,1.341-1.256,2.389-2.504,3.145
			c-1.249,0.755-2.609,1.134-4.082,1.134c-1.367,0-2.658-0.345-3.874-1.035c-1.216-0.69-2.212-1.667-2.987-2.928
			s-1.163-2.793-1.163-4.594c0-2.55,0.749-4.669,2.247-6.359c1.499-1.689,3.372-2.534,5.62-2.534c2.116,0,3.753,0.645,4.909,1.933
			S458.169,455.842,458.235,457.34z M454.784,456.552c0.04-0.302,0.06-0.572,0.06-0.808c0-1.157-0.339-2.054-1.016-2.691
			s-1.508-0.957-2.494-0.957c-2.393,0-3.818,1.486-4.278,4.456H454.784z"/>
		<path class="st1" d="M465.333,451.228h0.532c0.302,0.815,0.473,1.926,0.513,3.333c0.946-1.117,1.938-1.952,2.978-2.504
			c1.038-0.552,2.122-0.828,3.253-0.828c1.288,0,2.343,0.27,3.165,0.809c0.821,0.539,1.351,1.2,1.587,1.981
			c0.236,0.782,0.354,1.922,0.354,3.421v5.048c0,1.867,0.033,3.004,0.099,3.411c0.066,0.408,0.273,0.713,0.621,0.917
			c0.349,0.204,0.989,0.305,1.923,0.305v0.907h-8.262v-0.907h0.375c0.946,0,1.563-0.138,1.854-0.414
			c0.289-0.276,0.453-0.598,0.492-0.966c0.04-0.368,0.06-1.453,0.06-3.253v-5.206c0-1.275-0.062-2.185-0.188-2.73
			s-0.46-1.029-1.006-1.449c-0.545-0.421-1.238-0.631-2.08-0.631c-0.959,0-1.876,0.286-2.75,0.858
			c-0.875,0.572-1.699,1.43-2.475,2.573v6.585c0,1.867,0.036,3.004,0.108,3.411c0.072,0.408,0.282,0.713,0.631,0.917
			c0.348,0.204,0.996,0.305,1.942,0.305v0.907h-8.163v-0.907c0.907,0,1.538-0.092,1.893-0.276c0.355-0.184,0.575-0.463,0.661-0.838
			c0.085-0.375,0.128-1.548,0.128-3.52v-4.811c0-1.879-0.036-3.02-0.108-3.421s-0.283-0.703-0.631-0.907
			c-0.349-0.204-0.996-0.306-1.942-0.306v-0.907C462.342,451.978,463.821,451.675,465.333,451.228z"/>
		<path class="st1" d="M492.307,452.786h-4.87v9.76c0,1.499,0.065,2.507,0.197,3.027c0.131,0.519,0.41,0.937,0.838,1.252
			c0.427,0.315,0.884,0.473,1.37,0.473c0.946,0,1.768-0.539,2.465-1.617l0.631,0.375c-0.407,0.868-1.009,1.521-1.804,1.962
			c-0.796,0.44-1.601,0.661-2.416,0.661c-0.946,0-1.777-0.28-2.494-0.838s-1.163-1.212-1.341-1.962
			c-0.177-0.749-0.266-2.063-0.266-3.943v-9.149h-2.347v-0.907c1.078-0.026,2.044-0.479,2.898-1.36s1.4-2.116,1.637-3.707h0.631
			v5.067h4.87V452.786z"/>
	</g>
	<g>
		<path class="st1" d="M205.449,545.976h3.227v0.992h-3.227V545.976z"/>
		<path class="st1" d="M218.417,540.278h4.141v0.302h-0.224c-0.438,0-0.725,0.036-0.86,0.108s-0.226,0.207-0.27,0.404
			s-0.065,0.666-0.065,1.406v5.824c0,0.753-0.03,1.327-0.089,1.722c-0.06,0.395-0.225,0.778-0.496,1.153
			c-0.272,0.375-0.635,0.663-1.088,0.864c-0.454,0.201-0.98,0.303-1.581,0.303c-0.675,0-1.193-0.124-1.558-0.372
			c-0.363-0.247-0.545-0.542-0.545-0.884c0-0.206,0.064-0.379,0.193-0.519c0.129-0.141,0.288-0.211,0.477-0.211
			c0.192,0,0.354,0.063,0.483,0.19c0.129,0.127,0.193,0.283,0.193,0.467c0,0.109-0.026,0.224-0.079,0.342
			c-0.048,0.105-0.072,0.185-0.072,0.236c0,0.141,0.084,0.25,0.25,0.329c0.167,0.079,0.373,0.118,0.618,0.118
			c0.499,0,0.92-0.159,1.262-0.476s0.548-0.692,0.618-1.124c0.069-0.432,0.104-1.145,0.104-2.139v-5.824
			c0-0.709-0.021-1.167-0.062-1.374c-0.041-0.206-0.129-0.348-0.263-0.427c-0.134-0.079-0.426-0.118-0.877-0.118h-0.211V540.278z"/>
		<path class="st1" d="M226.086,544.675c0-1.376,0.46-2.48,1.38-3.312s2.068-1.249,3.444-1.249c1.389,0,2.549,0.412,3.479,1.236
			c0.932,0.824,1.396,1.948,1.396,3.372c0,1.38-0.445,2.498-1.337,3.352s-2.065,1.281-3.52,1.281c-1.415,0-2.576-0.427-3.483-1.281
			S226.086,546.085,226.086,544.675z M227.591,544.721c0,1.433,0.286,2.508,0.857,3.227c0.572,0.719,1.43,1.078,2.573,1.078
			c1.003,0,1.797-0.359,2.379-1.078c0.583-0.719,0.874-1.79,0.874-3.214c0-1.385-0.286-2.446-0.86-3.185
			c-0.574-0.738-1.406-1.107-2.498-1.107c-1.073,0-1.896,0.361-2.468,1.082C227.877,542.244,227.591,543.31,227.591,544.721z"/>
		<path class="st1" d="M246.846,546.417h0.315l-0.191,2.773h-7.381v-0.303h0.185c0.442,0,0.729-0.059,0.857-0.177
			s0.212-0.269,0.247-0.45c0.034-0.183,0.052-0.646,0.052-1.39v-4.371c0-0.679-0.019-1.126-0.056-1.341
			c-0.037-0.214-0.122-0.365-0.256-0.45s-0.415-0.128-0.845-0.128v-0.302h6.368l0.211,2.221h-0.31
			c-0.14-0.622-0.312-1.063-0.516-1.324c-0.203-0.261-0.445-0.425-0.727-0.493c-0.28-0.068-0.731-0.102-1.354-0.102h-1.235v3.74
			h0.946c0.434,0,0.737-0.037,0.91-0.112c0.173-0.074,0.287-0.188,0.342-0.338c0.055-0.151,0.082-0.446,0.082-0.884h0.309v3.05
			h-0.309c0-0.495-0.042-0.827-0.125-0.996c-0.083-0.169-0.205-0.278-0.364-0.329c-0.16-0.05-0.431-0.076-0.812-0.076h-0.979v2.11
			c0,1.056,0.067,1.677,0.203,1.863c0.136,0.187,0.502,0.279,1.098,0.279h0.664c0.469,0,0.854-0.06,1.157-0.181
			c0.302-0.12,0.59-0.368,0.864-0.742C246.472,547.589,246.688,547.074,246.846,546.417z"/>
		<path class="st1" d="M257.099,549.098v-2.866h0.329c0.372,1.867,1.255,2.799,2.648,2.799c0.626,0,1.111-0.178,1.456-0.535
			c0.344-0.356,0.516-0.757,0.516-1.2c0-0.447-0.151-0.821-0.453-1.124c-0.303-0.298-0.854-0.618-1.656-0.959
			c-0.715-0.307-1.254-0.575-1.617-0.805c-0.364-0.23-0.647-0.529-0.852-0.897c-0.203-0.368-0.306-0.76-0.306-1.176
			c0-0.635,0.221-1.165,0.661-1.587s0.998-0.634,1.673-0.634c0.376,0,0.731,0.062,1.064,0.184c0.333,0.123,0.675,0.377,1.025,0.763
			c0.201-0.241,0.315-0.502,0.342-0.782h0.289v2.333h-0.289c-0.167-0.679-0.461-1.213-0.884-1.604s-0.913-0.585-1.47-0.585
			c-0.53,0-0.919,0.144-1.166,0.431c-0.248,0.287-0.371,0.601-0.371,0.943c0,0.412,0.155,0.76,0.466,1.045
			c0.307,0.29,0.861,0.614,1.663,0.973c0.767,0.342,1.324,0.617,1.673,0.825s0.628,0.496,0.838,0.864s0.315,0.793,0.315,1.275
			c0,0.762-0.254,1.382-0.763,1.86c-0.508,0.478-1.188,0.716-2.037,0.716c-0.978,0-1.792-0.374-2.445-1.124
			c-0.145,0.206-0.252,0.495-0.321,0.868H257.099z"/>
		<path class="st1" d="M269.4,544.997v1.874c0,0.701,0.017,1.16,0.049,1.376c0.033,0.217,0.122,0.378,0.267,0.483
			s0.416,0.157,0.814,0.157h0.296v0.303h-4.081v-0.303h0.236c0.382,0,0.646-0.048,0.792-0.145c0.146-0.096,0.24-0.246,0.279-0.45
			c0.04-0.203,0.06-0.678,0.06-1.422v-4.371c0-0.709-0.02-1.167-0.06-1.374c-0.039-0.206-0.127-0.348-0.263-0.427
			c-0.136-0.079-0.43-0.118-0.881-0.118h-0.164v-0.302l1.117-0.04c0.894-0.031,1.591-0.046,2.09-0.046
			c0.92,0,1.629,0.072,2.126,0.217c0.498,0.145,0.905,0.401,1.223,0.769c0.318,0.368,0.477,0.833,0.477,1.393
			c0,0.487-0.108,0.916-0.325,1.289c-0.217,0.372-0.528,0.655-0.934,0.848s-1.118,0.289-2.139,0.289H269.4z M269.4,544.668h0.638
			c0.513,0,0.927-0.051,1.242-0.154s0.578-0.319,0.788-0.647c0.211-0.329,0.315-0.734,0.315-1.216c0-0.736-0.181-1.276-0.542-1.62
			c-0.361-0.344-0.947-0.516-1.758-0.516c-0.298,0-0.526,0.009-0.684,0.026V544.668z"/>
		<path class="st1" d="M281.129,545.904h-3.385l-0.229,0.565c-0.342,0.82-0.513,1.354-0.513,1.604c0,0.268,0.091,0.47,0.272,0.607
			c0.182,0.139,0.415,0.207,0.7,0.207v0.303h-2.648v-0.303c0.395-0.061,0.688-0.2,0.881-0.417c0.192-0.217,0.425-0.674,0.696-1.37
			c0.021-0.066,0.127-0.32,0.315-0.763l2.59-6.185h0.256l2.978,7.079l0.407,0.933c0.092,0.21,0.216,0.376,0.371,0.496
			c0.156,0.121,0.39,0.196,0.7,0.227v0.303h-3.503v-0.303c0.43,0,0.72-0.031,0.871-0.095s0.227-0.189,0.227-0.378
			c0-0.097-0.101-0.384-0.303-0.861L281.129,545.904z M281.018,545.608l-1.577-3.799l-1.571,3.799H281.018z"/>
		<path class="st1" d="M296.913,549.19h-2.398c-0.426-0.298-1.076-1.077-1.952-2.34c-0.28-0.403-0.572-0.79-0.874-1.16
			c-0.303-0.37-0.511-0.596-0.625-0.677c-0.113-0.081-0.291-0.122-0.532-0.122h-0.354v1.979c0,0.701,0.017,1.16,0.049,1.376
			c0.033,0.217,0.121,0.378,0.263,0.483c0.143,0.105,0.416,0.157,0.818,0.157h0.428v0.303h-4.266v-0.303h0.289
			c0.381,0,0.646-0.048,0.792-0.145c0.146-0.096,0.24-0.246,0.279-0.45c0.039-0.203,0.06-0.678,0.06-1.422v-4.371
			c0-0.709-0.021-1.167-0.06-1.374s-0.127-0.348-0.263-0.427c-0.136-0.079-0.43-0.118-0.881-0.118h-0.151v-0.302l1.275-0.066
			c0.85-0.04,1.524-0.059,2.024-0.059c0.85,0,1.541,0.079,2.073,0.237s0.963,0.416,1.292,0.775c0.328,0.359,0.492,0.789,0.492,1.288
			c0,0.583-0.214,1.08-0.644,1.492c-0.43,0.412-1.061,0.668-1.893,0.769c0.372,0.18,0.973,0.828,1.801,1.945
			c0.675,0.907,1.204,1.5,1.59,1.781c0.386,0.28,0.842,0.43,1.367,0.446V549.19z M290.177,544.589
			c0.328-0.009,0.668-0.022,1.019-0.04s0.655-0.066,0.913-0.145c0.259-0.079,0.468-0.194,0.628-0.345
			c0.16-0.151,0.286-0.349,0.378-0.595c0.092-0.245,0.139-0.548,0.139-0.907c0-0.627-0.157-1.128-0.471-1.505
			s-0.995-0.565-2.047-0.565c-0.162,0-0.349,0.009-0.559,0.026V544.589z"/>
		<path class="st1" d="M305.441,545.904h-3.385l-0.229,0.565c-0.342,0.82-0.513,1.354-0.513,1.604c0,0.268,0.091,0.47,0.272,0.607
			c0.182,0.139,0.415,0.207,0.7,0.207v0.303h-2.648v-0.303c0.395-0.061,0.688-0.2,0.881-0.417c0.192-0.217,0.425-0.674,0.696-1.37
			c0.021-0.066,0.127-0.32,0.315-0.763l2.59-6.185h0.256l2.978,7.079l0.407,0.933c0.092,0.21,0.216,0.376,0.371,0.496
			c0.156,0.121,0.39,0.196,0.7,0.227v0.303h-3.503v-0.303c0.43,0,0.72-0.031,0.871-0.095s0.227-0.189,0.227-0.378
			c0-0.097-0.101-0.384-0.303-0.861L305.441,545.904z M305.33,545.608l-1.577-3.799l-1.571,3.799H305.33z"/>
		<path class="st1" d="M319.728,549.394l-6.303-8.354v6.185c0,0.513,0.024,0.85,0.075,1.012c0.05,0.162,0.193,0.312,0.431,0.447
			c0.236,0.136,0.591,0.203,1.064,0.203v0.303h-3.325v-0.303c0.425-0.03,0.749-0.108,0.973-0.233
			c0.223-0.124,0.355-0.259,0.397-0.403c0.041-0.146,0.062-0.487,0.062-1.026v-4.726c0-0.683-0.032-1.141-0.096-1.374
			c-0.063-0.232-0.164-0.381-0.302-0.447c-0.139-0.066-0.446-0.099-0.924-0.099v-0.302h2.629l5.277,6.973v-5.33
			c0-0.395-0.04-0.67-0.121-0.828s-0.247-0.283-0.496-0.375c-0.25-0.092-0.55-0.138-0.9-0.138v-0.302h3.233v0.302
			c-0.377,0.031-0.674,0.103-0.891,0.217c-0.217,0.114-0.354,0.251-0.414,0.411c-0.06,0.16-0.089,0.431-0.089,0.812v7.375H319.728z"
			/>
		<path class="st1" d="M324.918,544.675c0-1.376,0.46-2.48,1.38-3.312s2.068-1.249,3.444-1.249c1.389,0,2.549,0.412,3.479,1.236
			c0.932,0.824,1.396,1.948,1.396,3.372c0,1.38-0.445,2.498-1.337,3.352s-2.065,1.281-3.52,1.281c-1.415,0-2.576-0.427-3.483-1.281
			S324.918,546.085,324.918,544.675z M326.423,544.721c0,1.433,0.286,2.508,0.857,3.227c0.572,0.719,1.43,1.078,2.573,1.078
			c1.003,0,1.797-0.359,2.379-1.078c0.583-0.719,0.874-1.79,0.874-3.214c0-1.385-0.286-2.446-0.86-3.185
			c-0.574-0.738-1.406-1.107-2.498-1.107c-1.073,0-1.896,0.361-2.468,1.082C326.709,542.244,326.423,543.31,326.423,544.721z"/>
		<path class="st1" d="M344.518,545.976h3.227v0.992h-3.227V545.976z"/>
	</g>
	<g>
		<circle class="st2" cx="282" cy="264.117" r="14.941"/>
		<g>
			<g>
				<path class="st1" d="M280.687,258.736v0.799c-1.986,0.389-2.979,1.5-2.979,3.333c0,0.645,0.194,0.968,0.584,0.968
					c0.082,0,0.185-0.016,0.307-0.046c0.235-0.071,0.44-0.107,0.614-0.107c0.502,0,0.901,0.159,1.198,0.476
					c0.297,0.318,0.445,0.676,0.445,1.075s-0.151,0.755-0.453,1.067c-0.302,0.312-0.693,0.469-1.175,0.469
					c-0.655,0-1.227-0.307-1.712-0.922c-0.487-0.614-0.729-1.433-0.729-2.457c0-1.188,0.34-2.199,1.021-3.034
					C278.488,259.522,279.448,258.982,280.687,258.736z M287.645,258.736v0.799c-1.986,0.389-2.979,1.5-2.979,3.333
					c0,0.645,0.189,0.968,0.568,0.968c0.081,0,0.184-0.016,0.307-0.046c0.246-0.071,0.45-0.107,0.614-0.107
					c0.502,0,0.901,0.159,1.198,0.476c0.297,0.318,0.445,0.676,0.445,1.075s-0.151,0.755-0.453,1.067
					c-0.302,0.312-0.693,0.469-1.175,0.469c-0.666,0-1.239-0.31-1.721-0.929c-0.48-0.62-0.722-1.436-0.722-2.45
					c0-1.188,0.343-2.199,1.029-3.034C285.442,259.522,286.405,258.982,287.645,258.736z"/>
			</g>
		</g>
	</g>
</g>
</svg>