<!-- Generator: Adobe Illustrator 22.0.1, SVG Export Plug-In  -->
<svg version="1.1"
	 xmlns="http://www.w3.org/2000/svg" xmlns:xlink="http://www.w3.org/1999/xlink" xmlns:a="http://ns.adobe.com/AdobeSVGViewerExtensions/3.0/"
	 x="0px" y="0px" width="338.259px" height="338.267px" viewBox="0 0 338.259 338.267"
	 style="enable-background:new 0 0 338.259 338.267;" xml:space="preserve">
<style type="text/css">
	.st0{fill-rule:evenodd;clip-rule:evenodd;fill:none;}
	.st1{fill:#222222;}
	.st2{fill:#C9B694;stroke:#C9B694;stroke-miterlimit:10;}
	.st3{font-family:'MaisonDeFleurRegular';}
	.st4{font-size:80.0134px;}
</style>
<defs>
</defs>
<g>
	<g>
		<circle class="st0" cx="169.125" cy="169.133" r="156"/>
		<path class="st1" d="M16.796,118.582l1.383-4.278l0.351,0.113c-0.153,0.473-0.209,0.809-0.168,1.008
			c0.041,0.199,0.163,0.361,0.368,0.487s0.733,0.326,1.586,0.602l1.053,0.34c-0.057,0.111-0.101,0.212-0.131,0.305
			c-0.122,0.375-0.166,0.905-0.134,1.588c0.044,0.93-0.048,1.749-0.277,2.456c-0.458,1.419-1.307,2.448-2.545,3.087
			c-1.238,0.639-2.574,0.727-4.008,0.263c-1.418-0.459-2.517-1.31-3.295-2.552c-0.777-1.242-0.917-2.634-0.419-4.175
			c0.429-1.326,1.271-2.266,2.527-2.818c-0.29-0.271-0.625-0.493-1.005-0.665l0.114-0.351l3.313,1.071l-0.113,0.351
			c-1.065-0.188-1.997-0.062-2.796,0.376s-1.345,1.11-1.636,2.012c-0.301,0.931-0.217,1.855,0.251,2.771
			c0.469,0.916,1.585,1.66,3.351,2.23c1.76,0.569,3.115,0.639,4.065,0.208s1.585-1.141,1.905-2.131
			c0.164-0.507,0.209-1.001,0.136-1.483s-0.234-0.846-0.482-1.093c-0.249-0.247-0.6-0.444-1.053-0.591
			c-0.531-0.172-0.897-0.251-1.099-0.238c-0.201,0.013-0.355,0.083-0.463,0.209c-0.108,0.127-0.226,0.385-0.352,0.775l-0.076,0.234
			L16.796,118.582z"/>
		<path class="st1" d="M20.891,93.375l1.545-3.121l0.317,0.157c-0.177,0.427-0.237,0.782-0.18,1.064
			c0.057,0.283,0.173,0.497,0.348,0.64s0.547,0.356,1.116,0.638l3.107,1.538c0.794,0.394,1.369,0.716,1.724,0.97
			c0.355,0.253,0.646,0.62,0.871,1.1c0.225,0.48,0.315,1.044,0.27,1.69s-0.242,1.321-0.59,2.024
			c-0.412,0.831-0.901,1.465-1.469,1.901s-1.136,0.667-1.706,0.691c-0.569,0.024-1.23-0.15-1.984-0.523l-0.954-0.481l-2.907-1.439
			c-0.744-0.368-1.235-0.584-1.472-0.647c-0.238-0.063-0.433-0.045-0.584,0.054s-0.345,0.385-0.579,0.858l-0.106,0.213l-0.317-0.157
			l2.111-4.264l0.317,0.157l-0.092,0.186c-0.228,0.459-0.338,0.779-0.333,0.958c0.005,0.18,0.099,0.345,0.282,0.496
			c0.183,0.151,0.662,0.418,1.438,0.802l2.941,1.456c1.02,0.505,1.766,0.816,2.24,0.933c0.474,0.118,0.978,0.037,1.514-0.241
			c0.535-0.278,0.982-0.78,1.341-1.506c0.282-0.569,0.432-1.14,0.449-1.712c0.017-0.572-0.078-1.05-0.284-1.436
			s-0.466-0.687-0.779-0.904c-0.312-0.218-0.832-0.506-1.557-0.865l-3.183-1.576c-0.528-0.262-0.913-0.415-1.154-0.459
			c-0.241-0.045-0.472,0-0.694,0.137c-0.222,0.136-0.452,0.411-0.691,0.824L20.891,93.375z"/>
		<path class="st1" d="M29.275,79.506l-0.295-0.195l2.632-3.973l0.295,0.195l-0.123,0.186c-0.283,0.427-0.434,0.73-0.451,0.91
			s0.056,0.354,0.218,0.527c0.163,0.172,0.605,0.498,1.327,0.976l4.261,2.823c0.684,0.453,1.142,0.733,1.374,0.841
			c0.233,0.108,0.446,0.126,0.641,0.056c0.194-0.071,0.422-0.303,0.682-0.696l0.17-0.256l0.295,0.195l-2.632,3.973l-0.295-0.195
			l0.17-0.256c0.246-0.372,0.37-0.66,0.371-0.866s-0.085-0.393-0.258-0.563c-0.173-0.17-0.623-0.496-1.349-0.977l-4.262-2.823
			c-0.692-0.458-1.151-0.735-1.377-0.83c-0.226-0.095-0.421-0.101-0.586-0.02c-0.165,0.082-0.393,0.343-0.684,0.783L29.275,79.506z"
			/>
		<path class="st1" d="M47.369,71.37l-2.566-2.155l0.247-0.294c1.952,1.07,3.452,0.981,4.5-0.267
			c0.471-0.561,0.676-1.13,0.615-1.707c-0.062-0.577-0.29-1.031-0.687-1.364c-0.4-0.336-0.85-0.482-1.348-0.439
			c-0.494,0.046-1.196,0.3-2.105,0.761c-0.812,0.409-1.458,0.69-1.938,0.843c-0.479,0.153-0.96,0.182-1.443,0.087
			s-0.911-0.298-1.284-0.611c-0.569-0.478-0.877-1.073-0.925-1.785c-0.047-0.712,0.183-1.371,0.69-1.975
			c0.283-0.337,0.605-0.609,0.965-0.815c0.36-0.206,0.845-0.321,1.454-0.345c-0.064-0.362-0.212-0.66-0.443-0.895l0.217-0.259
			l2.09,1.755l-0.218,0.259c-0.733-0.362-1.434-0.5-2.101-0.415c-0.667,0.085-1.21,0.377-1.628,0.875
			c-0.399,0.475-0.563,0.931-0.492,1.369s0.259,0.785,0.565,1.042c0.369,0.31,0.798,0.433,1.287,0.368
			c0.49-0.057,1.197-0.31,2.122-0.758c0.883-0.43,1.549-0.722,1.997-0.877c0.448-0.156,0.917-0.189,1.404-0.101
			s0.948,0.314,1.379,0.676c0.683,0.574,1.047,1.268,1.092,2.082s-0.251,1.602-0.891,2.364c-0.735,0.875-1.683,1.323-2.845,1.344
			c0.076,0.284,0.254,0.598,0.535,0.941L47.369,71.37z"/>
		<path class="st1" d="M60.327,57.135l-2.283-2.453l0.281-0.262c1.806,1.301,3.306,1.396,4.499,0.286
			c0.536-0.5,0.81-1.039,0.819-1.619c0.01-0.58-0.162-1.059-0.514-1.438c-0.356-0.383-0.784-0.583-1.284-0.601
			c-0.497-0.014-1.224,0.152-2.183,0.499c-0.856,0.307-1.531,0.506-2.026,0.599c-0.495,0.093-0.976,0.063-1.443-0.089
			c-0.468-0.153-0.867-0.407-1.199-0.764c-0.506-0.544-0.739-1.172-0.699-1.885s0.349-1.338,0.926-1.876
			c0.323-0.3,0.675-0.53,1.058-0.691c0.383-0.16,0.878-0.215,1.485-0.164c-0.02-0.367-0.13-0.681-0.331-0.942l0.248-0.23
			l1.859,1.997l-0.248,0.23c-0.684-0.449-1.362-0.671-2.035-0.668c-0.672,0.003-1.247,0.227-1.724,0.67
			c-0.454,0.423-0.672,0.855-0.655,1.298c0.017,0.443,0.161,0.811,0.434,1.103c0.328,0.353,0.739,0.527,1.232,0.523
			c0.493,0.003,1.226-0.161,2.198-0.493c0.929-0.318,1.625-0.527,2.089-0.626c0.464-0.1,0.933-0.076,1.406,0.072
			c0.473,0.147,0.902,0.428,1.286,0.84c0.607,0.652,0.884,1.386,0.83,2.2c-0.055,0.814-0.446,1.56-1.173,2.237
			c-0.836,0.779-1.833,1.107-2.989,0.986c0.041,0.292,0.179,0.625,0.416,1L60.327,57.135z"/>
		<path class="st1" d="M79.632,37.335l0.3-0.215l1.711,2.765l-7.011,5.036l-0.206-0.287l0.175-0.125
			c0.42-0.302,0.651-0.553,0.693-0.754s0.018-0.399-0.073-0.596s-0.39-0.649-0.898-1.356l-2.982-4.152
			c-0.463-0.645-0.786-1.057-0.968-1.235c-0.182-0.179-0.366-0.263-0.551-0.253s-0.482,0.162-0.89,0.455l-0.207-0.288l6.05-4.345
			l1.715,1.967l-0.293,0.21c-0.558-0.495-1.022-0.797-1.394-0.906c-0.372-0.109-0.714-0.1-1.026,0.027
			c-0.313,0.126-0.765,0.402-1.355,0.827l-1.174,0.843l2.551,3.552l0.899-0.646c0.412-0.296,0.675-0.539,0.789-0.728
			c0.114-0.188,0.145-0.374,0.094-0.555c-0.051-0.181-0.226-0.479-0.525-0.896l0.293-0.211l2.081,2.897l-0.293,0.211
			c-0.338-0.47-0.604-0.757-0.798-0.861c-0.194-0.104-0.385-0.125-0.571-0.063c-0.187,0.062-0.46,0.222-0.823,0.482l-0.93,0.668
			l1.439,2.004c0.72,1.003,1.208,1.547,1.465,1.631c0.256,0.084,0.667-0.077,1.233-0.484l0.631-0.453
			c0.445-0.32,0.771-0.64,0.976-0.961c0.205-0.321,0.31-0.752,0.314-1.295C80.078,38.704,79.931,38.067,79.632,37.335z"/>
		<path class="st1" d="M98.09,26.696l1.383,2.739l-7.803,4.187l-0.167-0.312l0.271-0.146c0.393-0.21,0.638-0.406,0.736-0.587
			c0.098-0.18,0.112-0.387,0.042-0.62s-0.311-0.733-0.723-1.501l-2.417-4.504c-0.393-0.732-0.667-1.192-0.824-1.381
			c-0.157-0.189-0.326-0.288-0.507-0.295s-0.504,0.114-0.97,0.363l-0.203,0.109l-0.167-0.312l4.409-2.366l0.167,0.312l-0.406,0.218
			c-0.452,0.243-0.728,0.438-0.827,0.588c-0.1,0.15-0.119,0.339-0.058,0.567c0.062,0.229,0.297,0.725,0.707,1.488l2.581,4.809
			c0.356,0.664,0.597,1.069,0.723,1.217c0.126,0.147,0.293,0.225,0.503,0.231c0.21,0.007,0.58-0.132,1.107-0.415l0.698-0.375
			c0.564-0.303,0.957-0.577,1.177-0.823c0.22-0.246,0.363-0.602,0.43-1.068s0.007-1.117-0.18-1.953L98.09,26.696z"/>
		<path class="st1" d="M117.075,18.708l1.016,2.895l-8.28,3.139l-0.125-0.331l0.288-0.109c0.417-0.158,0.686-0.32,0.806-0.486
			c0.121-0.167,0.161-0.37,0.123-0.61c-0.039-0.24-0.213-0.767-0.522-1.582l-1.812-4.78c-0.294-0.776-0.507-1.268-0.638-1.476
			c-0.131-0.208-0.286-0.328-0.464-0.358s-0.515,0.047-1.009,0.234l-0.215,0.082l-0.125-0.331l4.679-1.773l0.125,0.331l-0.432,0.164
			c-0.479,0.182-0.778,0.34-0.896,0.476c-0.119,0.135-0.162,0.32-0.131,0.555c0.032,0.235,0.201,0.757,0.508,1.567l1.935,5.104
			c0.267,0.704,0.453,1.138,0.559,1.301c0.105,0.163,0.262,0.261,0.469,0.294c0.207,0.034,0.591-0.056,1.152-0.268l0.74-0.281
			c0.599-0.227,1.023-0.448,1.273-0.664c0.25-0.215,0.438-0.549,0.565-1.003c0.127-0.454,0.152-1.107,0.075-1.96L117.075,18.708z"/>
		<path class="st1" d="M143.758,15.041l-0.469-3.318l0.38-0.054c0.737,2.101,1.912,3.037,3.526,2.809
			c0.726-0.103,1.258-0.389,1.598-0.859c0.34-0.47,0.474-0.96,0.401-1.473c-0.073-0.518-0.31-0.927-0.709-1.228
			c-0.399-0.295-1.09-0.576-2.075-0.84c-0.877-0.238-1.545-0.461-2.004-0.668c-0.459-0.207-0.836-0.507-1.132-0.899
			c-0.296-0.393-0.479-0.831-0.547-1.312c-0.104-0.736,0.064-1.384,0.505-1.946c0.44-0.562,1.052-0.898,1.833-1.008
			c0.437-0.062,0.857-0.048,1.263,0.039s0.843,0.326,1.312,0.715c0.194-0.312,0.283-0.632,0.268-0.961l0.335-0.047l0.382,2.702
			l-0.335,0.047c-0.304-0.759-0.733-1.33-1.286-1.712c-0.554-0.382-1.153-0.528-1.797-0.437c-0.614,0.087-1.041,0.317-1.281,0.69
			c-0.24,0.373-0.332,0.757-0.275,1.153c0.067,0.477,0.304,0.855,0.711,1.134c0.402,0.285,1.097,0.569,2.085,0.854
			c0.944,0.271,1.634,0.498,2.072,0.682s0.808,0.472,1.112,0.864c0.304,0.392,0.495,0.867,0.574,1.425
			c0.125,0.883-0.068,1.643-0.579,2.279c-0.51,0.636-1.258,1.024-2.242,1.163c-1.131,0.16-2.137-0.141-3.015-0.901
			c-0.134,0.262-0.211,0.615-0.231,1.058L143.758,15.041z"/>
		<path class="st1" d="M162.706,12.685c-0.008-0.225,0.066-0.421,0.222-0.588c0.156-0.167,0.346-0.254,0.572-0.262
			c0.23-0.008,0.429,0.065,0.596,0.221s0.254,0.346,0.262,0.571c0.008,0.23-0.067,0.43-0.225,0.597
			c-0.159,0.167-0.35,0.254-0.576,0.262c-0.23,0.008-0.428-0.068-0.592-0.229C162.8,13.095,162.713,12.905,162.706,12.685z"/>
		<path class="st1" d="M201.071,5.723l-0.348,2.576l-0.356-0.06c0.023-0.573-0.057-1.063-0.24-1.471
			c-0.184-0.407-0.401-0.679-0.654-0.815c-0.253-0.136-0.697-0.258-1.334-0.365L196.13,5.25l-0.734,4.358l0.963,0.162
			c0.622,0.104,1.052,0.069,1.292-0.106c0.24-0.175,0.413-0.579,0.519-1.21l0.379,0.063l-0.61,3.624l-0.379-0.064
			c0.074-0.439,0.088-0.794,0.043-1.064s-0.147-0.466-0.306-0.589c-0.159-0.123-0.491-0.227-0.996-0.312l-0.962-0.162l-0.43,2.554
			c-0.136,0.809-0.205,1.341-0.207,1.598c-0.002,0.257,0.069,0.46,0.213,0.609c0.144,0.149,0.451,0.263,0.92,0.342l0.349,0.059
			l-0.059,0.349l-4.775-0.804l0.059-0.349l0.318,0.054c0.44,0.074,0.753,0.069,0.941-0.013s0.326-0.237,0.414-0.464
			c0.087-0.227,0.204-0.77,0.348-1.629l0.849-5.041c0.138-0.819,0.203-1.351,0.194-1.596c-0.008-0.246-0.082-0.427-0.22-0.544
			c-0.139-0.117-0.468-0.219-0.989-0.307l-0.182-0.031l0.059-0.349L201.071,5.723z"/>
		<path class="st1" d="M216.265,16.35l-3.793-1.131l-0.447,0.557c-0.657,0.804-1.027,1.346-1.11,1.626
			c-0.089,0.299-0.055,0.557,0.103,0.772s0.396,0.371,0.715,0.466l-0.101,0.339l-2.969-0.885l0.101-0.338
			c0.462,0.063,0.838,0.005,1.126-0.174s0.702-0.613,1.239-1.303c0.046-0.066,0.249-0.316,0.608-0.749l4.969-6.066l0.288,0.085
			l0.972,8.929l0.145,1.182c0.033,0.267,0.116,0.493,0.25,0.68c0.134,0.187,0.371,0.35,0.709,0.488l-0.101,0.339l-3.926-1.171
			l0.101-0.339c0.481,0.144,0.817,0.205,1.008,0.185c0.19-0.021,0.317-0.137,0.38-0.348c0.032-0.108,0.015-0.463-0.051-1.066
			L216.265,16.35z M216.239,15.981l-0.499-4.785l-3.03,3.733L216.239,15.981z"/>
		<path class="st1" d="M240.926,18.897l-0.985,2.406l-0.33-0.147c0.167-0.549,0.213-1.043,0.139-1.484
			c-0.075-0.44-0.218-0.759-0.428-0.954c-0.21-0.195-0.61-0.425-1.199-0.689l-1.859-0.833l-1.807,4.034l0.891,0.399
			c0.575,0.257,1.001,0.332,1.277,0.223c0.276-0.109,0.545-0.456,0.807-1.041l0.351,0.157l-1.502,3.353l-0.351-0.157
			c0.182-0.407,0.285-0.747,0.309-1.02c0.024-0.273-0.025-0.489-0.148-0.647c-0.123-0.159-0.417-0.343-0.885-0.553l-0.891-0.399
			l-1.059,2.364c-0.335,0.749-0.536,1.247-0.602,1.495c-0.066,0.248-0.049,0.462,0.053,0.643c0.102,0.18,0.37,0.368,0.805,0.563
			l0.323,0.145l-0.145,0.323l-4.419-1.98l0.145-0.323l0.294,0.132c0.407,0.183,0.712,0.257,0.915,0.225s0.375-0.148,0.517-0.346
			c0.142-0.197,0.391-0.693,0.747-1.489l2.09-4.665c0.339-0.757,0.536-1.256,0.59-1.496c0.054-0.239,0.028-0.434-0.077-0.582
			s-0.398-0.33-0.88-0.546l-0.168-0.075l0.145-0.323L240.926,18.897z"/>
		<path class="st1" d="M252.93,32.989l-3.388-2.047l-0.572,0.427c-0.838,0.614-1.332,1.045-1.483,1.295
			c-0.162,0.268-0.193,0.525-0.095,0.773c0.099,0.248,0.291,0.458,0.576,0.63l-0.183,0.303l-2.651-1.602l0.183-0.303
			c0.432,0.177,0.81,0.215,1.134,0.115c0.324-0.101,0.833-0.417,1.526-0.95c0.062-0.053,0.321-0.244,0.777-0.573l6.333-4.624
			l0.256,0.155l-1.301,8.886l-0.157,1.181c-0.035,0.267-0.011,0.507,0.072,0.722c0.083,0.215,0.271,0.432,0.563,0.65l-0.183,0.303
			l-3.506-2.119l0.183-0.303c0.43,0.26,0.74,0.404,0.93,0.432c0.189,0.028,0.341-0.053,0.456-0.241
			c0.058-0.097,0.131-0.445,0.218-1.045L252.93,32.989z M252.997,32.625l0.719-4.757l-3.87,2.853L252.997,32.625z"/>
		<path class="st1" d="M272.223,47.911l-1.98,2.344l-6.906-5.542l0.221-0.276l0.24,0.192c0.348,0.279,0.624,0.428,0.829,0.448
			c0.204,0.02,0.4-0.048,0.587-0.204c0.187-0.155,0.553-0.573,1.099-1.252l3.199-3.987c0.52-0.647,0.836-1.08,0.949-1.298
			s0.137-0.413,0.073-0.582c-0.064-0.17-0.302-0.42-0.714-0.75l-0.18-0.145l0.221-0.275l3.902,3.132l-0.221,0.275l-0.359-0.289
			c-0.4-0.321-0.688-0.498-0.865-0.531c-0.177-0.034-0.358,0.023-0.545,0.169c-0.186,0.146-0.55,0.557-1.093,1.232l-3.416,4.256
			c-0.472,0.587-0.75,0.968-0.837,1.141c-0.086,0.174-0.092,0.358-0.016,0.554c0.076,0.196,0.348,0.481,0.815,0.856l0.618,0.496
			c0.5,0.401,0.905,0.655,1.218,0.761c0.312,0.106,0.696,0.099,1.151-0.022c0.455-0.121,1.031-0.431,1.727-0.93L272.223,47.911z"/>
		<path class="st1" d="M285.738,50.872l0.252-0.248l3.345,3.394l-0.252,0.249l-0.156-0.159c-0.36-0.365-0.625-0.575-0.797-0.628
			s-0.358-0.019-0.561,0.104s-0.611,0.49-1.229,1.097L282.7,58.27c-0.584,0.576-0.953,0.966-1.106,1.171s-0.216,0.411-0.187,0.616
			s0.209,0.475,0.541,0.811l0.216,0.219l-0.252,0.248l-3.345-3.395l0.251-0.248l0.216,0.219c0.313,0.318,0.57,0.498,0.771,0.541
			c0.201,0.043,0.402-0.002,0.604-0.137c0.202-0.134,0.613-0.507,1.234-1.119l3.641-3.588c0.591-0.583,0.956-0.975,1.095-1.177
			c0.139-0.202,0.186-0.392,0.14-0.569c-0.046-0.178-0.254-0.455-0.625-0.831L285.738,50.872z"/>
		<path class="st1" d="M294.068,66.989c1.28-0.975,2.634-1.33,4.06-1.063c1.427,0.267,2.627,1.04,3.603,2.319
			c0.984,1.292,1.423,2.664,1.316,4.114c-0.106,1.45-0.822,2.68-2.147,3.689c-1.284,0.978-2.64,1.355-4.066,1.131
			c-1.427-0.224-2.656-1.013-3.687-2.367c-1.003-1.317-1.429-2.7-1.276-4.149C292.023,69.213,292.756,67.989,294.068,66.989z
			 M295.092,68.422c-1.333,1.015-2.131,2.043-2.395,3.084c-0.264,1.042,0.01,2.094,0.82,3.158c0.711,0.934,1.607,1.417,2.689,1.45
			s2.285-0.455,3.61-1.464c1.288-0.981,2.072-2,2.353-3.058s0.034-2.093-0.739-3.108c-0.761-0.999-1.679-1.509-2.755-1.53
			C297.599,66.933,296.405,67.422,295.092,68.422z"/>
		<path class="st1" d="M303.512,89.584l2.918-1.647l0.189,0.335c-1.687,1.452-2.13,2.888-1.329,4.307
			c0.36,0.638,0.821,1.03,1.382,1.175s1.068,0.09,1.519-0.164c0.455-0.257,0.75-0.626,0.884-1.108
			c0.129-0.479,0.138-1.226,0.025-2.239c-0.098-0.904-0.135-1.607-0.109-2.109c0.025-0.503,0.167-0.964,0.424-1.383
			s0.599-0.749,1.022-0.988c0.647-0.365,1.312-0.445,1.997-0.24c0.684,0.206,1.22,0.652,1.607,1.339
			c0.217,0.384,0.358,0.781,0.425,1.19s0.004,0.904-0.187,1.482c0.361,0.067,0.692,0.033,0.993-0.102l0.166,0.294l-2.376,1.342
			l-0.167-0.295c0.596-0.56,0.971-1.167,1.125-1.822s0.071-1.266-0.249-1.833c-0.305-0.54-0.675-0.854-1.109-0.94
			c-0.435-0.087-0.826-0.033-1.174,0.164c-0.42,0.237-0.685,0.595-0.796,1.076c-0.118,0.479-0.13,1.229-0.035,2.252
			c0.093,0.978,0.133,1.704,0.122,2.178c-0.012,0.474-0.145,0.924-0.398,1.35s-0.626,0.777-1.117,1.055
			c-0.776,0.438-1.554,0.536-2.333,0.292c-0.779-0.243-1.413-0.797-1.901-1.663c-0.562-0.995-0.648-2.041-0.261-3.136
			c-0.293-0.029-0.649,0.028-1.069,0.171L303.512,89.584z"/>
		<path class="st1" d="M320.883,119.042l1.139,3.598l-1.106,0.351l-1.139-3.598L320.883,119.042z"/>
		<path class="st1" d="M334.303,148.614l0.236,1.7c0.198,1.417,0.319,2.374,0.363,2.869c0.137,1.542,0.01,2.765-0.383,3.669
			c-0.393,0.904-0.972,1.603-1.739,2.096s-1.675,0.786-2.727,0.879c-0.761,0.068-1.466,0.015-2.117-0.159
			c-0.651-0.174-1.202-0.442-1.653-0.806c-0.452-0.364-0.81-0.8-1.074-1.309c-0.264-0.509-0.444-0.999-0.54-1.469
			c-0.096-0.47-0.182-1.136-0.259-1.999l-0.409-4.602l0.352-0.032l0.038,0.429c0.04,0.444,0.123,0.747,0.25,0.908
			s0.312,0.255,0.554,0.283s0.796,0.002,1.664-0.075l5.008-0.446c0.827-0.074,1.359-0.146,1.597-0.215
			c0.238-0.07,0.395-0.187,0.471-0.351c0.075-0.164,0.09-0.509,0.043-1.034l-0.027-0.306L334.303,148.614z M334.374,151.833
			l-6.937,0.618c-1.026,0.091-1.686,0.169-1.978,0.234c-0.292,0.064-0.49,0.198-0.593,0.4s-0.127,0.612-0.072,1.229
			c0.081,0.903,0.27,1.635,0.57,2.195c0.299,0.56,0.83,1.002,1.592,1.328c0.762,0.326,1.708,0.438,2.835,0.338
			c0.878-0.078,1.651-0.261,2.32-0.55s1.2-0.664,1.594-1.126c0.394-0.462,0.645-0.958,0.755-1.487
			c0.11-0.53,0.129-1.198,0.057-2.004C334.482,152.621,334.435,152.229,334.374,151.833z"/>
		<path class="st1" d="M335.176,172.537l0.354,0.012l-0.163,4.763l-0.354-0.012l0.008-0.223c0.018-0.512-0.013-0.849-0.092-1.011
			s-0.233-0.273-0.462-0.335c-0.229-0.062-0.775-0.107-1.641-0.137l-5.109-0.175c-0.819-0.028-1.356-0.027-1.611,0.002
			c-0.255,0.03-0.446,0.126-0.575,0.288c-0.128,0.162-0.201,0.479-0.217,0.95l-0.011,0.307l-0.354-0.012l0.163-4.763l0.354,0.012
			l-0.01,0.307c-0.016,0.446,0.03,0.756,0.137,0.932c0.106,0.175,0.278,0.29,0.515,0.344c0.236,0.054,0.79,0.096,1.661,0.126
			l5.109,0.175c0.83,0.028,1.366,0.023,1.608-0.014c0.242-0.038,0.412-0.135,0.51-0.29c0.098-0.156,0.156-0.498,0.174-1.025
			L335.176,172.537z"/>
		<path class="st1" d="M322.308,199.346l0.438-2.771c0.421-0.437,1.441-1.045,3.06-1.827c0.517-0.25,1.017-0.516,1.5-0.798
			c0.483-0.281,0.782-0.48,0.896-0.598c0.114-0.117,0.193-0.314,0.238-0.592l0.065-0.41l-2.286-0.362
			c-0.81-0.128-1.343-0.193-1.6-0.195c-0.256-0.001-0.458,0.07-0.606,0.216c-0.147,0.145-0.258,0.451-0.332,0.916l-0.078,0.494
			l-0.35-0.055l0.78-4.927l0.349,0.055l-0.053,0.334c-0.07,0.44-0.062,0.754,0.022,0.941c0.084,0.187,0.241,0.322,0.469,0.405
			c0.228,0.083,0.772,0.192,1.633,0.329l5.049,0.799c0.82,0.13,1.352,0.19,1.598,0.183c0.245-0.008,0.425-0.083,0.542-0.226
			c0.116-0.143,0.215-0.475,0.297-0.996l0.028-0.175l0.349,0.055l-0.157,1.485c-0.11,0.989-0.21,1.772-0.302,2.35
			c-0.155,0.982-0.373,1.766-0.652,2.352c-0.279,0.586-0.657,1.036-1.132,1.35s-1.001,0.425-1.578,0.334
			c-0.673-0.106-1.208-0.445-1.606-1.017c-0.397-0.572-0.578-1.347-0.542-2.327c-0.276,0.397-1.135,0.972-2.577,1.725
			c-1.171,0.613-1.954,1.118-2.348,1.512s-0.65,0.893-0.766,1.498L322.308,199.346z M328.854,192.404
			c-0.05,0.381-0.097,0.776-0.141,1.184c-0.044,0.408-0.044,0.769,0,1.082s0.138,0.576,0.284,0.789
			c0.146,0.212,0.352,0.394,0.618,0.545c0.267,0.151,0.607,0.26,1.022,0.325c0.724,0.115,1.332,0.025,1.825-0.268
			c0.492-0.293,0.835-1.047,1.027-2.262c0.03-0.188,0.054-0.404,0.072-0.65L328.854,192.404z"/>
		<path class="st1" d="M320.361,219.295l-0.107,0.354l-3.04-1.154l2.504-8.262l0.338,0.103l-0.062,0.206
			c-0.15,0.496-0.181,0.835-0.092,1.021c0.088,0.185,0.229,0.327,0.42,0.428c0.191,0.101,0.704,0.278,1.538,0.531l4.892,1.483
			c0.76,0.23,1.267,0.361,1.52,0.392s0.45-0.014,0.591-0.134c0.141-0.121,0.284-0.421,0.43-0.902l0.338,0.103l-2.161,7.129
			l-2.558-0.52l0.105-0.346c0.744,0.055,1.296,0.012,1.657-0.127c0.361-0.141,0.627-0.355,0.798-0.646s0.362-0.785,0.573-1.481
			l0.419-1.383l-4.186-1.269l-0.321,1.059c-0.147,0.486-0.208,0.838-0.184,1.057c0.024,0.219,0.112,0.385,0.263,0.497
			c0.151,0.113,0.471,0.243,0.961,0.392l-0.104,0.346l-3.414-1.035l0.105-0.346c0.554,0.168,0.94,0.234,1.157,0.198
			c0.217-0.036,0.381-0.135,0.492-0.296c0.11-0.162,0.23-0.457,0.36-0.883l0.333-1.096l-2.361-0.716
			c-1.182-0.358-1.9-0.493-2.155-0.404c-0.254,0.088-0.483,0.466-0.685,1.133l-0.225,0.743c-0.159,0.525-0.223,0.977-0.19,1.356
			s0.212,0.786,0.538,1.219S319.679,218.895,320.361,219.295z"/>
		<path class="st1" d="M312.661,239.836l-0.138,0.3l-3.317-1.527l0.139-0.3c0.416,0.09,0.818,0.092,1.207,0.006
			c-0.557-1.267-0.537-2.547,0.059-3.841c0.63-1.368,1.578-2.287,2.843-2.757s2.61-0.376,4.035,0.279
			c0.936,0.432,1.725,1.037,2.367,1.817c0.642,0.781,0.998,1.622,1.068,2.523c0.07,0.9-0.092,1.779-0.486,2.636
			c-0.326,0.708-0.767,1.282-1.322,1.723c-0.556,0.441-1.076,0.723-1.56,0.844c0.303,0.382,0.657,0.691,1.062,0.929l-0.141,0.307
			l-3.627-1.568l0.138-0.3c1.372,0.378,2.455,0.358,3.25-0.057s1.379-1.028,1.752-1.838c0.457-0.991,0.417-1.965-0.12-2.92
			c-0.536-0.955-1.554-1.777-3.053-2.468c-1.419-0.653-2.654-0.836-3.705-0.546c-1.05,0.289-1.793,0.909-2.231,1.858
			c-0.233,0.507-0.349,1.083-0.347,1.728s0.227,1.257,0.673,1.837C311.652,239.083,312.138,239.527,312.661,239.836z"/>
		<path class="st1" d="M309.643,253.712l0.191-0.298l2.079,1.401l-5.473,8.508l-2.137-1.311l0.179-0.278
			c0.641,0.272,1.146,0.405,1.513,0.397s0.644-0.092,0.83-0.252c0.186-0.161,0.433-0.48,0.74-0.959l0.907-1.409l-6.187-3.98
			c-0.686-0.44-1.146-0.714-1.382-0.82s-0.452-0.121-0.647-0.046c-0.195,0.076-0.418,0.31-0.671,0.702l-0.274,0.427l-0.297-0.191
			l2.811-4.37l0.297,0.191l-0.291,0.452c-0.241,0.375-0.361,0.665-0.359,0.87c0.002,0.206,0.09,0.394,0.264,0.563
			c0.174,0.17,0.627,0.49,1.36,0.962l6.187,3.979l0.836-1.3c0.363-0.564,0.58-0.961,0.651-1.189s0.025-0.516-0.137-0.86
			C310.471,254.557,310.141,254.161,309.643,253.712z"/>
		<path class="st1" d="M295.033,270.091c1.219,1.05,1.845,2.301,1.88,3.752c0.035,1.45-0.473,2.785-1.523,4.004
			c-1.061,1.23-2.312,1.944-3.752,2.14c-1.44,0.196-2.792-0.25-4.053-1.337c-1.223-1.055-1.872-2.303-1.948-3.745
			c-0.076-1.442,0.441-2.808,1.552-4.096c1.081-1.254,2.346-1.957,3.795-2.107C292.434,268.55,293.783,269.013,295.033,270.091z
			 M293.843,271.389c-1.269-1.094-2.44-1.662-3.514-1.704c-1.073-0.043-2.046,0.443-2.919,1.456
			c-0.766,0.889-1.054,1.865-0.862,2.931c0.191,1.065,0.918,2.142,2.179,3.229c1.227,1.058,2.386,1.613,3.479,1.669
			s2.055-0.4,2.888-1.367c0.82-0.95,1.128-1.954,0.927-3.012C295.819,273.534,295.093,272.466,293.843,271.389z"/>
		<path class="st1" d="M266.877,290.848l2.121-1.836c0.604-0.062,1.776,0.129,3.518,0.574c0.556,0.142,1.11,0.26,1.661,0.356
			c0.551,0.096,0.908,0.136,1.07,0.12c0.163-0.016,0.351-0.115,0.564-0.3l0.314-0.272l-1.515-1.749
			c-0.537-0.619-0.903-1.013-1.098-1.18c-0.195-0.166-0.396-0.241-0.603-0.226s-0.488,0.179-0.844,0.487l-0.378,0.327l-0.231-0.268
			l3.771-3.266l0.231,0.268l-0.255,0.221c-0.337,0.292-0.534,0.537-0.59,0.734c-0.056,0.197-0.023,0.401,0.098,0.612
			c0.121,0.21,0.467,0.645,1.037,1.303l3.346,3.864c0.543,0.628,0.912,1.018,1.104,1.17c0.192,0.151,0.379,0.21,0.56,0.176
			c0.181-0.034,0.47-0.224,0.869-0.569l0.134-0.115l0.231,0.267l-1.077,1.034c-0.721,0.686-1.303,1.22-1.744,1.603
			c-0.752,0.65-1.423,1.11-2.015,1.378c-0.592,0.269-1.17,0.369-1.736,0.304c-0.565-0.066-1.04-0.32-1.422-0.762
			c-0.446-0.516-0.637-1.119-0.573-1.812c0.064-0.692,0.426-1.402,1.085-2.129c-0.467,0.126-1.494,0.013-3.082-0.342
			c-1.291-0.285-2.214-0.404-2.77-0.356c-0.556,0.047-1.073,0.265-1.551,0.651L266.877,290.848z M276.356,289.758
			c-0.284,0.26-0.574,0.531-0.871,0.814c-0.296,0.284-0.529,0.56-0.697,0.828c-0.168,0.268-0.265,0.529-0.291,0.785
			c-0.026,0.256,0.015,0.528,0.121,0.815s0.297,0.59,0.572,0.907c0.48,0.554,1.002,0.878,1.568,0.971
			c0.565,0.094,1.313-0.262,2.243-1.067c0.144-0.124,0.301-0.274,0.474-0.451L276.356,289.758z"/>
		<path class="st1" d="M247.596,310.183c0.734,1.432,0.843,2.826,0.33,4.184c-0.514,1.357-1.487,2.402-2.919,3.137
			c-1.446,0.74-2.873,0.93-4.281,0.569c-1.408-0.361-2.492-1.283-3.251-2.766c-0.736-1.437-0.868-2.837-0.395-4.202
			s1.466-2.436,2.98-3.211c1.473-0.754,2.91-0.929,4.309-0.522C245.768,307.777,246.844,308.714,247.596,310.183z M246.005,310.937
			c-0.764-1.491-1.635-2.458-2.613-2.901s-2.062-0.36-3.253,0.25c-1.044,0.535-1.679,1.332-1.902,2.391
			c-0.223,1.059,0.044,2.329,0.804,3.812c0.738,1.441,1.603,2.393,2.594,2.855s2.055,0.403,3.19-0.179
			c1.117-0.572,1.781-1.387,1.992-2.441S246.757,312.406,246.005,310.937z"/>
		<path class="st1" d="M219.866,327.734l-0.934-2.426l0.341-0.119c0.255,0.514,0.561,0.905,0.917,1.175s0.679,0.402,0.965,0.4
			c0.287-0.002,0.735-0.109,1.345-0.321l1.924-0.669l-1.453-4.175l-0.922,0.32c-0.595,0.208-0.956,0.445-1.082,0.715
			c-0.126,0.269-0.084,0.706,0.126,1.311l-0.363,0.127l-1.207-3.471l0.363-0.126c0.146,0.421,0.305,0.739,0.475,0.954
			c0.169,0.215,0.354,0.338,0.552,0.369s0.539-0.037,1.023-0.205l0.922-0.321l-0.852-2.446c-0.269-0.774-0.465-1.274-0.587-1.501
			c-0.122-0.226-0.282-0.369-0.48-0.431c-0.197-0.062-0.521-0.014-0.972,0.143l-0.334,0.116l-0.116-0.334l4.574-1.592l0.116,0.334
			l-0.305,0.106c-0.421,0.146-0.694,0.301-0.819,0.464s-0.171,0.365-0.139,0.606s0.191,0.772,0.478,1.596l1.68,4.828
			c0.272,0.783,0.472,1.281,0.597,1.493c0.125,0.211,0.277,0.335,0.455,0.371c0.178,0.035,0.516-0.033,1.015-0.207l0.174-0.061
			l0.116,0.334L219.866,327.734z"/>
		<path class="st1" d="M184.506,326.194l-2.949,8.95l-3.183,0.308l-0.034-0.352l0.382-0.037c0.51-0.05,0.84-0.124,0.99-0.224
			s0.241-0.267,0.272-0.501s0.005-0.783-0.078-1.646l-0.493-5.088c-0.079-0.815-0.151-1.348-0.216-1.597
			c-0.065-0.248-0.187-0.426-0.364-0.532s-0.501-0.137-0.97-0.092l-0.459,0.045l-0.034-0.353l4.958-0.479l0.034,0.352l-0.367,0.036
			c-0.438,0.042-0.738,0.128-0.898,0.257c-0.16,0.129-0.252,0.313-0.278,0.556c-0.025,0.242,0.004,0.796,0.088,1.663l0.639,6.604
			l3.208-9.701l0.359-0.035l5.04,8.903l-0.588-6.075c-0.08-0.831-0.161-1.396-0.241-1.691s-0.264-0.545-0.551-0.746
			s-0.672-0.294-1.155-0.278l-0.034-0.352l3.71-0.359l0.034,0.353c-0.441,0.068-0.791,0.225-1.047,0.468
			c-0.257,0.244-0.401,0.526-0.432,0.849c-0.03,0.322-0.004,0.912,0.079,1.769l0.437,4.515c0.08,0.826,0.156,1.356,0.228,1.592
			c0.071,0.235,0.189,0.391,0.354,0.468s0.509,0.09,1.035,0.039l0.283-0.027l0.034,0.352l-3.16,0.306L184.506,326.194z"/>
		<path class="st1" d="M157.284,327.998l-0.369-0.019l0.378-3.229l8.623,0.414l-0.017,0.354l-0.215-0.011
			c-0.517-0.024-0.854,0.028-1.012,0.159c-0.157,0.131-0.262,0.302-0.313,0.513c-0.051,0.21-0.098,0.75-0.14,1.621l-0.246,5.105
			c-0.038,0.793-0.042,1.316-0.01,1.569c0.032,0.253,0.123,0.433,0.274,0.54s0.478,0.174,0.979,0.197l-0.017,0.354l-7.44-0.358
			l-0.121-2.606l0.361,0.018c0.129,0.734,0.305,1.26,0.528,1.576c0.224,0.315,0.497,0.521,0.821,0.616s0.849,0.16,1.576,0.195
			l1.443,0.069l0.21-4.369l-1.105-0.053c-0.507-0.024-0.863,0.002-1.07,0.079c-0.206,0.077-0.346,0.203-0.418,0.376
			c-0.073,0.174-0.121,0.517-0.146,1.028l-0.361-0.018l0.171-3.562l0.361,0.018c-0.028,0.578,0.002,0.969,0.09,1.17
			c0.088,0.202,0.224,0.337,0.408,0.404c0.184,0.068,0.499,0.113,0.944,0.135l1.144,0.055l0.118-2.465
			c0.06-1.233,0.015-1.963-0.133-2.188c-0.148-0.226-0.57-0.354-1.266-0.389l-0.776-0.037c-0.547-0.026-1.001,0.022-1.361,0.146
			c-0.36,0.123-0.71,0.396-1.051,0.818C157.787,326.648,157.505,327.238,157.284,327.998z"/>
		<path class="st1" d="M134.73,321.439l2.758,0.515c0.425,0.434,1.006,1.47,1.743,3.108c0.236,0.523,0.488,1.03,0.756,1.521
			c0.268,0.49,0.459,0.794,0.573,0.912c0.113,0.117,0.309,0.202,0.586,0.254l0.408,0.076l0.424-2.274
			c0.15-0.807,0.23-1.338,0.239-1.594c0.009-0.257-0.058-0.461-0.199-0.612s-0.443-0.27-0.907-0.356l-0.491-0.092l0.065-0.348
			l4.904,0.915l-0.065,0.348l-0.332-0.062c-0.438-0.081-0.752-0.083-0.942-0.003c-0.189,0.079-0.329,0.231-0.417,0.457
			c-0.089,0.227-0.213,0.768-0.373,1.624l-0.938,5.024c-0.152,0.816-0.228,1.347-0.227,1.593c0.001,0.245,0.071,0.428,0.21,0.547
			c0.14,0.12,0.469,0.229,0.987,0.325l0.174,0.032l-0.065,0.348l-1.48-0.198c-0.986-0.137-1.766-0.259-2.34-0.366
			c-0.978-0.182-1.755-0.421-2.333-0.716c-0.578-0.296-1.018-0.686-1.318-1.169s-0.398-1.013-0.291-1.587
			c0.125-0.67,0.479-1.196,1.061-1.577c0.582-0.382,1.362-0.541,2.341-0.479c-0.39-0.286-0.94-1.16-1.653-2.623
			c-0.581-1.188-1.063-1.983-1.446-2.389c-0.383-0.405-0.875-0.674-1.476-0.807L134.73,321.439z M141.489,328.173
			c-0.38-0.061-0.773-0.118-1.18-0.174c-0.407-0.055-0.768-0.064-1.082-0.029s-0.579,0.123-0.796,0.262
			c-0.216,0.14-0.403,0.341-0.562,0.604c-0.158,0.262-0.276,0.6-0.353,1.013c-0.134,0.721-0.062,1.331,0.217,1.831
			c0.28,0.501,1.024,0.864,2.233,1.09c0.187,0.034,0.402,0.064,0.648,0.089L141.489,328.173z"/>
		<path class="st1" d="M114.84,319.659l-0.314-0.104l1.146-3.467l0.314,0.104c-0.043,0.423,0,0.823,0.129,1.201
			c1.196-0.695,2.47-0.819,3.823-0.372c1.431,0.473,2.45,1.312,3.059,2.516c0.608,1.205,0.667,2.552,0.174,4.041
			c-0.323,0.979-0.836,1.83-1.541,2.556c-0.704,0.725-1.5,1.173-2.387,1.344s-1.779,0.108-2.674-0.188
			c-0.74-0.244-1.359-0.618-1.86-1.12c-0.5-0.503-0.838-0.988-1.013-1.456c-0.346,0.344-0.614,0.73-0.804,1.159l-0.321-0.106
			l1.152-3.78l0.314,0.104c-0.222,1.405-0.082,2.48,0.42,3.224s1.176,1.255,2.022,1.534c1.037,0.343,1.999,0.194,2.888-0.446
			c0.889-0.64,1.592-1.743,2.11-3.31c0.49-1.484,0.533-2.731,0.127-3.743c-0.405-1.011-1.104-1.68-2.097-2.008
			c-0.53-0.176-1.115-0.226-1.755-0.151c-0.64,0.074-1.223,0.366-1.75,0.875S115.088,319.104,114.84,319.659z"/>
		<path class="st1" d="M94.491,312.11l4.864,2.44l1.127-2.247c0.368-0.732,0.59-1.222,0.667-1.467s0.069-0.46-0.025-0.645
			s-0.349-0.382-0.766-0.591l-0.241-0.12l0.159-0.316l4.191,2.103l-0.158,0.316l-0.241-0.121c-0.398-0.2-0.7-0.288-0.904-0.264
			c-0.204,0.023-0.381,0.131-0.531,0.322s-0.421,0.676-0.812,1.454l-2.292,4.569c-0.372,0.742-0.59,1.231-0.655,1.469
			c-0.064,0.237-0.047,0.432,0.051,0.585c0.099,0.152,0.384,0.347,0.855,0.583l0.172,0.087l-0.159,0.315l-4.191-2.103l0.158-0.315
			l0.172,0.086c0.454,0.228,0.77,0.339,0.95,0.335c0.18-0.005,0.346-0.098,0.497-0.28c0.151-0.182,0.421-0.66,0.81-1.434
			l0.927-1.849l-4.864-2.44l-0.927,1.849c-0.372,0.742-0.592,1.23-0.659,1.467c-0.066,0.236-0.051,0.431,0.047,0.583
			c0.099,0.152,0.384,0.347,0.855,0.584l0.247,0.124l-0.159,0.315l-4.239-2.127l0.158-0.315l0.138,0.068
			c0.458,0.23,0.777,0.343,0.957,0.339c0.18-0.005,0.345-0.098,0.497-0.28c0.151-0.182,0.421-0.659,0.81-1.434l2.292-4.569
			c0.368-0.732,0.591-1.221,0.67-1.465s0.071-0.459-0.025-0.645s-0.353-0.384-0.769-0.593l-0.213-0.106l0.159-0.316l4.239,2.127
			l-0.159,0.316l-0.323-0.162c-0.394-0.198-0.693-0.285-0.897-0.261c-0.204,0.023-0.38,0.132-0.528,0.324
			c-0.148,0.192-0.417,0.678-0.808,1.456L94.491,312.11z"/>
		<path class="st1" d="M76.715,299.583l3.25,2.262l0.598-0.389c0.875-0.559,1.397-0.957,1.563-1.197
			c0.179-0.257,0.227-0.512,0.145-0.766c-0.082-0.254-0.26-0.477-0.534-0.666l0.202-0.291l2.542,1.771l-0.202,0.29
			c-0.419-0.205-0.794-0.268-1.124-0.188c-0.33,0.08-0.858,0.363-1.584,0.851c-0.065,0.048-0.335,0.222-0.812,0.521l-6.618,4.207
			l-0.246-0.171l1.872-8.784l0.232-1.168c0.052-0.264,0.044-0.505-0.025-0.725s-0.242-0.448-0.521-0.686l0.202-0.29l3.362,2.34
			l-0.202,0.291c-0.412-0.287-0.712-0.451-0.9-0.49c-0.188-0.04-0.344,0.03-0.47,0.211c-0.064,0.093-0.159,0.436-0.285,1.028
			L76.715,299.583z M76.625,299.942l-1.024,4.701l4.046-2.598L76.625,299.942z"/>
		<path class="st1" d="M60.454,280.79l-1.239,12.176l4.918-5.304c0.408-0.439,0.655-0.749,0.74-0.928
			c0.086-0.18,0.081-0.421-0.014-0.726s-0.345-0.646-0.751-1.021l0.24-0.26l2.852,2.646l-0.24,0.259
			c-0.389-0.312-0.729-0.503-1.02-0.573s-0.512-0.061-0.662,0.03c-0.151,0.091-0.44,0.367-0.869,0.829l-3.758,4.053
			c-0.543,0.586-0.88,1.004-1.011,1.254c-0.13,0.249-0.162,0.457-0.096,0.623c0.066,0.167,0.304,0.439,0.713,0.819l-0.24,0.26
			l-2.254-2.092l1.02-10.177l-4.239,4.571c-0.313,0.338-0.498,0.606-0.554,0.807c-0.056,0.199-0.014,0.438,0.127,0.716
			s0.362,0.556,0.663,0.834l-0.241,0.26l-2.773-2.572l0.241-0.259c0.348,0.273,0.66,0.447,0.936,0.522
			c0.277,0.074,0.504,0.066,0.682-0.023c0.178-0.09,0.418-0.299,0.722-0.625l5.865-6.324L60.454,280.79z"/>
		<path class="st1" d="M43.197,277.96l-1.143-1.28c-0.955-1.067-1.588-1.794-1.9-2.181c-0.972-1.204-1.547-2.291-1.725-3.261
			c-0.178-0.97-0.085-1.873,0.277-2.709s0.954-1.586,1.775-2.249c0.594-0.48,1.209-0.829,1.847-1.048
			c0.638-0.218,1.245-0.302,1.823-0.251c0.578,0.05,1.118,0.213,1.621,0.489c0.502,0.275,0.924,0.582,1.266,0.919
			c0.342,0.337,0.784,0.842,1.329,1.516l2.903,3.594l-0.275,0.222l-0.271-0.335c-0.28-0.347-0.518-0.551-0.713-0.614
			c-0.196-0.062-0.401-0.037-0.618,0.074c-0.216,0.112-0.663,0.441-1.34,0.989l-3.911,3.159c-0.646,0.521-1.048,0.878-1.207,1.068
			c-0.159,0.191-0.224,0.375-0.195,0.554c0.028,0.178,0.208,0.472,0.54,0.883l0.193,0.238L43.197,277.96z M41.345,275.326
			l5.417-4.376c0.801-0.647,1.305-1.08,1.512-1.296c0.208-0.217,0.297-0.438,0.27-0.663c-0.027-0.226-0.235-0.579-0.625-1.062
			c-0.57-0.705-1.135-1.207-1.696-1.506c-0.56-0.298-1.248-0.37-2.062-0.216c-0.814,0.153-1.662,0.586-2.543,1.298
			c-0.686,0.554-1.226,1.138-1.621,1.749c-0.395,0.612-0.627,1.22-0.696,1.823c-0.07,0.603-0.002,1.154,0.201,1.655
			s0.56,1.066,1.068,1.696C40.816,274.732,41.074,275.031,41.345,275.326z"/>
		<path class="st1" d="M29.143,258.556l-0.3,0.187l-2.512-4.05l0.301-0.187l0.117,0.189c0.271,0.436,0.483,0.698,0.639,0.789
			c0.156,0.09,0.346,0.098,0.57,0.021c0.225-0.075,0.705-0.342,1.44-0.798l4.345-2.694c0.697-0.432,1.143-0.731,1.338-0.897
			s0.302-0.353,0.318-0.559c0.017-0.207-0.099-0.51-0.348-0.911l-0.162-0.261l0.301-0.187l2.511,4.05l-0.3,0.187l-0.162-0.261
			c-0.235-0.379-0.445-0.612-0.632-0.698c-0.186-0.087-0.393-0.087-0.62,0c-0.227,0.086-0.71,0.358-1.451,0.817l-4.345,2.694
			c-0.706,0.438-1.148,0.739-1.329,0.905c-0.181,0.166-0.268,0.341-0.263,0.524s0.147,0.5,0.425,0.948L29.143,258.556z"/>
		<path class="st1" d="M29.295,238.7l-3.031,1.43l-0.164-0.348c1.789-1.325,2.335-2.725,1.64-4.198
			c-0.313-0.663-0.744-1.087-1.293-1.272s-1.058-0.168-1.526,0.053c-0.473,0.223-0.793,0.569-0.962,1.04
			c-0.165,0.469-0.227,1.212-0.188,2.231c0.032,0.908,0.017,1.612-0.045,2.111c-0.062,0.5-0.236,0.949-0.524,1.349
			c-0.288,0.398-0.652,0.702-1.092,0.91c-0.672,0.316-1.341,0.348-2.008,0.093c-0.667-0.254-1.169-0.738-1.506-1.452
			c-0.188-0.398-0.3-0.805-0.336-1.218c-0.036-0.414,0.062-0.902,0.295-1.466c-0.355-0.093-0.688-0.083-0.998,0.029l-0.144-0.306
			l2.468-1.165l0.144,0.307c-0.635,0.515-1.053,1.093-1.255,1.735c-0.202,0.642-0.164,1.257,0.114,1.846
			c0.265,0.561,0.61,0.9,1.038,1.019c0.427,0.119,0.821,0.093,1.183-0.078c0.436-0.205,0.727-0.543,0.872-1.015
			c0.153-0.469,0.219-1.217,0.199-2.244c-0.021-0.981-0.008-1.709,0.038-2.181c0.046-0.473,0.212-0.912,0.496-1.318
			c0.285-0.406,0.682-0.729,1.191-0.97c0.806-0.381,1.589-0.421,2.348-0.122c0.759,0.3,1.351,0.898,1.775,1.798
			c0.487,1.033,0.498,2.083,0.031,3.147c0.29,0.05,0.649,0.019,1.078-0.093L29.295,238.7z"/>
		<path class="st1" d="M12.535,224.62l-0.335,0.113l-1.527-4.515l0.335-0.113l0.071,0.211c0.164,0.485,0.312,0.79,0.443,0.914
			c0.131,0.123,0.314,0.173,0.55,0.15c0.236-0.023,0.764-0.173,1.584-0.45l4.842-1.638c0.777-0.263,1.279-0.453,1.507-0.571
			c0.228-0.117,0.374-0.274,0.437-0.472c0.063-0.197,0.019-0.519-0.132-0.966l-0.099-0.291l0.335-0.113l1.527,4.515l-0.335,0.113
			l-0.099-0.291c-0.143-0.423-0.295-0.697-0.457-0.823c-0.162-0.127-0.363-0.174-0.604-0.142c-0.24,0.033-0.773,0.188-1.599,0.468
			l-4.842,1.638c-0.786,0.266-1.286,0.459-1.5,0.58s-0.338,0.271-0.375,0.451c-0.037,0.181,0.03,0.521,0.199,1.021L12.535,224.62z"
			/>
		<path class="st1" d="M15.746,196.694l-8.101,9.174l7.087-1.444c0.588-0.12,0.968-0.228,1.143-0.323
			c0.174-0.096,0.311-0.295,0.412-0.598c0.1-0.303,0.095-0.726-0.015-1.268l0.346-0.07l0.777,3.811l-0.347,0.071
			c-0.134-0.48-0.299-0.833-0.495-1.061c-0.195-0.227-0.38-0.347-0.556-0.361c-0.176-0.014-0.572,0.042-1.19,0.168l-5.416,1.104
			c-0.783,0.16-1.3,0.303-1.552,0.43c-0.251,0.127-0.398,0.277-0.441,0.451s-0.009,0.534,0.103,1.081l-0.346,0.071l-0.614-3.013
			l6.759-7.677l-6.108,1.245c-0.452,0.092-0.759,0.203-0.921,0.333c-0.162,0.13-0.266,0.348-0.313,0.656
			c-0.047,0.308-0.029,0.662,0.052,1.064l-0.346,0.07l-0.755-3.706l0.346-0.071c0.124,0.425,0.275,0.748,0.457,0.97
			c0.181,0.222,0.37,0.348,0.567,0.378c0.197,0.03,0.514,0.001,0.951-0.088l8.451-1.722L15.746,196.694z"/>
		<path class="st1" d="M8.863,177.09l-0.252-4.49l0.368-0.021c0.028,0.497,0.097,0.83,0.207,1.001s0.283,0.278,0.519,0.321
			c0.236,0.043,0.802,0.04,1.697-0.011l1.105-0.062c-0.014,0.124-0.018,0.235-0.012,0.332c0.022,0.394,0.171,0.904,0.448,1.53
			c0.376,0.852,0.585,1.648,0.627,2.39c0.083,1.489-0.336,2.754-1.261,3.797c-0.924,1.043-2.139,1.606-3.643,1.691
			c-1.489,0.083-2.82-0.313-3.994-1.192c-1.173-0.878-1.805-2.126-1.896-3.743c-0.078-1.392,0.369-2.571,1.341-3.54
			c-0.368-0.149-0.76-0.234-1.177-0.257l-0.021-0.368l3.477-0.196l0.021,0.369c-1.061,0.208-1.885,0.662-2.472,1.359
			c-0.587,0.698-0.854,1.52-0.8,2.467c0.055,0.977,0.466,1.809,1.233,2.494c0.768,0.686,2.077,0.977,3.929,0.872
			c1.847-0.104,3.136-0.528,3.867-1.272s1.066-1.636,1.008-2.674c-0.03-0.532-0.166-1.01-0.408-1.432
			c-0.242-0.423-0.523-0.705-0.845-0.846c-0.321-0.141-0.719-0.198-1.195-0.171c-0.558,0.031-0.928,0.089-1.11,0.174
			c-0.183,0.085-0.301,0.206-0.357,0.363c-0.055,0.157-0.071,0.44-0.048,0.85l0.014,0.246L8.863,177.09z"/>
		<path class="st1" d="M11.092,145.492l0.599-3.726l1.146,0.184l-0.599,3.726L11.092,145.492z"/>
	</g>
	<g>
		<path class="st2" d="M155.548,129.144v-0.16c-11.79,0.48-17.897,0.748-18.323,0.8c-8.535,0.534-16.43,1.334-23.684,2.4
			c-9.122,1.334-16.696,2.988-22.724,4.961c-4.908,1.601-9.015,3.468-12.322,5.601c-2.348,1.494-4.241,2.96-5.681,4.401
			c-1.708,1.708-2.428,3.308-2.161,4.801c0,0.107-0.054,0.214-0.16,0.32c-0.108,0.107-0.214,0.188-0.32,0.24
			c-0.266,0.054-0.453-0.053-0.56-0.32c-0.48-1.172-0.453-2.24,0.08-3.2c0.692-1.173,1.36-2.107,2-2.801
			c2.613-2.773,6.053-5.253,10.322-7.441c3.787-1.92,8.348-3.573,13.682-4.961c5.601-1.546,11.922-2.801,18.963-3.761
			c8.374-1.12,15.923-1.787,22.644-2c6.401-0.266,10.508-0.426,12.322-0.48c3.2-0.052,7.748-0.12,13.642-0.2
			c5.894-0.08,9.534-0.12,10.922-0.12c0.586-0.053,1.013-0.08,1.28-0.08c0.533,0,0.96-0.212,1.28-0.64
			c0.052-0.053,0.132-0.146,0.24-0.28c0.106-0.132,0.187-0.226,0.24-0.28c7.734-9.014,17.603-15.335,29.605-18.963
			c6.507-1.92,12.774-2.773,18.803-2.561c1.812,0.054,3.2,0.24,4.161,0.56c2.453,0.8,4.267,2.428,5.441,4.881
			c1.12,2.294,0.906,4.401-0.64,6.321c-0.748,0.96-1.734,1.894-2.96,2.8c-1.548,1.12-3.628,2.188-6.241,3.201
			c-3.681,1.388-8.109,2.508-13.282,3.36c-6.721,1.121-13.522,1.84-20.403,2.161c-0.748,0.054-2.228,0.147-4.441,0.28
			c-2.214,0.134-3.908,0.2-5.081,0.2c-1.388,0.054-2.4,0.56-3.041,1.521c-0.16,0.213-0.628,0.868-1.4,1.96
			c-0.774,1.094-1.32,1.96-1.64,2.601c-0.748,1.334-1.308,2.721-1.68,4.161c-0.8,3.308,0.16,6.055,2.88,8.241
			c1.386,1.121,3.013,1.948,4.881,2.48c3.413,0.96,6.801,1.2,10.162,0.72c5.813-0.906,10.988-2.72,15.522-5.441
			c3.147-1.867,5.761-4.081,7.841-6.641l6.081-7.601c0.48-0.64,0.933-1.12,1.36-1.44c0.32-0.212,0.68-0.226,1.08-0.04
			c0.4,0.188,0.6,0.494,0.6,0.92c0.053,0.534-0.027,0.987-0.24,1.36c-0.32,0.64-0.854,1.601-1.6,2.881
			c-0.32,0.587-1.174,2.04-2.561,4.36c-1.388,2.321-2.454,4.095-3.2,5.321c-2.561,4.428-4.749,9.042-6.561,13.842
			c-1.014,2.56-2.348,5.975-4.001,10.242c-0.268,0.854-0.348,1.374-0.24,1.56c0.106,0.187,0.56,0.227,1.36,0.12
			c6.614-0.692,11.015-1.28,13.202-1.76c3.467-0.8,9.388-2.267,17.763-4.401c0.48-0.106,1.173-0.333,2.081-0.68
			c0.906-0.346,1.466-0.546,1.68-0.6c0.16-0.052,0.292,0.028,0.4,0.24c0.053,0.054,0.066,0.12,0.04,0.2
			c-0.027,0.08-0.04,0.147-0.04,0.2c-0.32,0.374-0.56,0.588-0.72,0.64c-1.334,0.588-2.268,0.96-2.8,1.12
			c-7.469,2.241-13.79,3.841-18.963,4.801c-0.48,0.108-3.388,0.506-8.721,1.2c-2.294,0.267-4.028,0.453-5.201,0.56
			c-0.748,0.053-1.254,0.427-1.52,1.121c-0.96,2.4-1.68,4.187-2.161,5.361c-3.734,9.228-7.735,17.095-12.002,23.604
			c-7.469,11.414-16.67,20.67-27.604,27.765c-6.455,4.16-12.882,6.881-19.283,8.161c-5.921,1.173-11.629,0.933-17.123-0.72
			c-3.521-1.068-6.401-2.881-8.641-5.441c-2.241-2.561-3.694-5.334-4.361-8.321c-0.667-2.988-0.68-5.975-0.04-8.961
			c1.333-6.135,4.693-11.602,10.082-16.403c5.601-4.961,12.108-9.015,19.523-12.162c9.814-4.108,19.843-7.281,30.085-9.521
			c4.481-0.96,9.948-2.054,16.403-3.281c0.586-0.107,3.333-0.507,8.241-1.2c0.053-0.054,0.227-0.094,0.52-0.12
			c0.293-0.028,0.521-0.04,0.68-0.04c0.213-0.054,0.44-0.107,0.68-0.16c0.24-0.054,0.413-0.094,0.52-0.12
			c0.106-0.027,0.227-0.054,0.36-0.08c0.132-0.027,0.226-0.04,0.28-0.04c0.053,0,0.187-0.107,0.4-0.32
			c0.16-0.32,0.252-0.52,0.28-0.6c0.026-0.08,0.093-0.24,0.2-0.48c0.106-0.24,0.186-0.466,0.24-0.68
			c0.533-1.28,1.307-3.253,2.321-5.921c1.013-2.667,1.786-4.667,2.32-6.001c1.76-4.427,3.813-8.614,6.161-12.562
			c0.32-0.532,0.48-0.826,0.48-0.88c0.212-0.48,0.266-0.772,0.16-0.88c-0.107-0.106-0.188-0.16-0.24-0.16
			c-0.054,0-0.147,0.04-0.28,0.12c-0.134,0.08-0.228,0.148-0.28,0.2c-0.107,0.054-0.16,0.107-0.16,0.16
			c-5.495,4.321-12.002,7.175-19.523,8.562c-4.161,0.8-8.055,0.748-11.682-0.16c-2.774-0.64-5.121-1.867-7.042-3.681
			c-2.72-2.507-3.734-5.681-3.041-9.521c0.32-2.027,0.987-4.001,2-5.921c0.16-0.267,0.36-0.613,0.6-1.041
			c0.24-0.426,0.413-0.746,0.52-0.96c0.373-0.64,0.213-0.933-0.48-0.88c-4.268,0.054-7.441,0.107-9.521,0.16
			c-1.12,0-2.708,0.04-4.761,0.12C157.775,129.024,156.348,129.092,155.548,129.144z M126.823,234.682
			c3.253,1.12,6.454,1.601,9.602,1.44c2.721,0.106,5.681-0.24,8.882-1.04c5.333-1.388,10.562-3.788,15.683-7.201
			c8.534-5.602,15.815-12.43,21.844-20.484c6.667-8.961,12.588-20.537,17.763-34.726c0.106-0.32,0.106-0.56,0-0.72
			c-0.107-0.16-0.32-0.214-0.64-0.16c-4.641,0.64-7.389,1.04-8.241,1.2c-7.361,1.333-13.256,2.453-17.683,3.36
			c-10.242,2.187-20.271,5.361-30.085,9.522c-7.469,3.146-13.976,7.201-19.523,12.162c-5.281,4.747-8.481,10.188-9.602,16.323
			c-0.8,4.534-0.094,8.682,2.121,12.442C119.155,230.561,122.449,233.188,126.823,234.682z M233.401,115.382
			c0.052-0.106,0.292-0.746,0.72-1.92c0-1.386-0.32-2.453-0.96-3.2c-1.44-1.813-3.148-2.721-5.121-2.721
			c-2.88-0.052-5.148,0-6.801,0.16c-4.694,0.534-9.869,1.814-15.522,3.841c-8.109,2.988-15.096,7.148-20.964,12.482
			c-0.534,0.48-1.334,1.228-2.4,2.24c-0.054,0.054-0.107,0.188-0.16,0.4c0.266,0.213,0.48,0.32,0.64,0.32
			c0.48-0.052,2.24-0.172,5.281-0.36c3.041-0.187,5.361-0.307,6.961-0.36c5.067-0.266,10.375-0.826,15.923-1.68
			c5.441-0.853,10.054-2,13.842-3.44c2.773-1.12,4.881-2.267,6.321-3.441C232.067,116.956,232.813,116.182,233.401,115.382z"/>
	</g>
</g>
</svg>