<!-- Generator: Adobe Illustrator 22.0.1, SVG Export Plug-In  -->
<svg version="1.1"
	 xmlns="http://www.w3.org/2000/svg" xmlns:xlink="http://www.w3.org/1999/xlink" xmlns:a="http://ns.adobe.com/AdobeSVGViewerExtensions/3.0/"
	 x="0px" y="0px" width="98.586px" height="98.586px" viewBox="0 0 98.586 98.586"
	 style="enable-background:new 0 0 98.586 98.586;" xml:space="preserve">
<style type="text/css">
	.st0{fill:#C9B695;}
	.st1{fill:#FFFFFF;}
	.st2{fill:none;stroke:#FFFFFF;stroke-width:0.75;stroke-miterlimit:10;}
	.st3{fill:none;}
	.st4{font-family:'OpenSans-Bold';}
	.st5{font-size:5.75px;}
	.st6{letter-spacing:1;}
</style>
<defs>
</defs>
<circle class="st0" cx="49.293" cy="49.293" r="49.293"/>
<g>
	<g>
		<path class="st1" d="M25.671,51.19h-0.991l-0.556-2.156c-0.021-0.077-0.056-0.235-0.105-0.476
			c-0.05-0.241-0.078-0.402-0.086-0.484c-0.011,0.101-0.039,0.264-0.084,0.487s-0.079,0.383-0.104,0.479l-0.554,2.15h-0.988
			l-1.047-4.104h0.856l0.524,2.24c0.092,0.414,0.158,0.772,0.2,1.075c0.011-0.106,0.036-0.271,0.077-0.495
			c0.04-0.224,0.078-0.397,0.113-0.521l0.598-2.299h0.823l0.598,2.299c0.026,0.104,0.06,0.261,0.099,0.472
			c0.039,0.212,0.069,0.394,0.09,0.545c0.019-0.146,0.049-0.328,0.09-0.546s0.078-0.395,0.112-0.529l0.522-2.24h0.855L25.671,51.19z
			"/>
		<path class="st1" d="M31.745,51.19h-0.867v-1.771h-1.626v1.771h-0.87v-4.104h0.87v1.608h1.626v-1.608h0.867V51.19z"/>
		<path class="st1" d="M37.656,49.132c0,0.679-0.168,1.201-0.505,1.566s-0.82,0.548-1.449,0.548s-1.111-0.183-1.448-0.548
			s-0.506-0.89-0.506-1.572c0-0.684,0.169-1.205,0.507-1.565s0.822-0.54,1.453-0.54s1.113,0.182,1.447,0.544
			C37.489,47.928,37.656,48.451,37.656,49.132z M34.66,49.132c0,0.458,0.088,0.804,0.262,1.036c0.174,0.231,0.435,0.348,0.78,0.348
			c0.694,0,1.042-0.461,1.042-1.384c0-0.925-0.346-1.388-1.036-1.388c-0.347,0-0.607,0.117-0.783,0.35
			C34.749,48.328,34.66,48.673,34.66,49.132z"/>
		<path class="st1" d="M44.812,51.19l-0.298-0.977h-1.496l-0.298,0.977h-0.938l1.449-4.121h1.063l1.454,4.121H44.812z
			 M44.307,49.483c-0.275-0.886-0.431-1.386-0.465-1.502c-0.035-0.116-0.06-0.208-0.074-0.275c-0.062,0.239-0.239,0.832-0.531,1.777
			H44.307z"/>
		<path class="st1" d="M48.287,49.615v1.575h-0.87v-4.104h1.196c0.558,0,0.971,0.102,1.238,0.305s0.401,0.511,0.401,0.925
			c0,0.241-0.066,0.456-0.199,0.645c-0.133,0.188-0.321,0.335-0.564,0.442c0.617,0.923,1.02,1.519,1.207,1.788H49.73l-0.979-1.575
			H48.287z M48.287,48.908h0.281c0.275,0,0.478-0.046,0.609-0.138c0.131-0.092,0.196-0.236,0.196-0.433
			c0-0.194-0.067-0.333-0.201-0.415c-0.134-0.083-0.341-0.124-0.622-0.124h-0.264V48.908z"/>
		<path class="st1" d="M54.727,51.19h-2.364v-4.104h2.364v0.713h-1.494V48.7h1.39v0.713h-1.39v1.059h1.494V51.19z"/>
		<path class="st1" d="M60.654,48.776l0.856-1.69h0.938l-1.361,2.507v1.598h-0.865v-1.569l-1.361-2.535h0.943L60.654,48.776z"/>
		<path class="st1" d="M67.84,49.132c0,0.679-0.168,1.201-0.505,1.566s-0.82,0.548-1.449,0.548s-1.111-0.183-1.448-0.548
			s-0.506-0.89-0.506-1.572c0-0.684,0.169-1.205,0.507-1.565s0.822-0.54,1.453-0.54s1.113,0.182,1.447,0.544
			C67.673,47.928,67.84,48.451,67.84,49.132z M64.844,49.132c0,0.458,0.088,0.804,0.262,1.036c0.174,0.231,0.435,0.348,0.78,0.348
			c0.694,0,1.042-0.461,1.042-1.384c0-0.925-0.346-1.388-1.036-1.388c-0.347,0-0.607,0.117-0.783,0.35
			C64.932,48.328,64.844,48.673,64.844,49.132z"/>
		<path class="st1" d="M73.181,47.086v2.655c0,0.304-0.067,0.569-0.203,0.798s-0.332,0.403-0.588,0.525
			c-0.257,0.121-0.561,0.183-0.91,0.183c-0.527,0-0.938-0.136-1.229-0.406s-0.438-0.641-0.438-1.11v-2.645h0.868v2.513
			c0,0.316,0.063,0.548,0.19,0.696c0.127,0.147,0.338,0.222,0.632,0.222c0.284,0,0.491-0.074,0.619-0.224
			c0.128-0.148,0.192-0.382,0.192-0.7v-2.507H73.181z"/>
		<path class="st1" d="M75.595,49.829v-0.208c0-0.18,0.038-0.336,0.114-0.469c0.077-0.133,0.218-0.274,0.422-0.424
			c0.196-0.141,0.326-0.255,0.389-0.343s0.094-0.187,0.094-0.295c0-0.122-0.045-0.214-0.135-0.278
			c-0.09-0.063-0.215-0.095-0.376-0.095c-0.281,0-0.601,0.092-0.96,0.274l-0.307-0.614c0.418-0.234,0.86-0.352,1.328-0.352
			c0.386,0,0.692,0.093,0.92,0.278s0.341,0.433,0.341,0.741c0,0.206-0.047,0.384-0.141,0.533c-0.094,0.15-0.271,0.318-0.533,0.506
			c-0.18,0.133-0.293,0.233-0.341,0.303s-0.072,0.16-0.072,0.272v0.169H75.595z M75.506,50.789c0-0.157,0.042-0.276,0.126-0.356
			c0.084-0.081,0.207-0.121,0.368-0.121c0.155,0,0.275,0.041,0.36,0.124c0.085,0.082,0.128,0.2,0.128,0.354
			c0,0.147-0.043,0.265-0.129,0.35c-0.087,0.085-0.206,0.128-0.359,0.128c-0.158,0-0.279-0.042-0.365-0.125
			C75.549,51.057,75.506,50.94,75.506,50.789z"/>
	</g>
</g>
<g>
	<line class="st2" x1="49.293" y1="6.895" x2="49.293" y2="36.53"/>
	<line class="st2" x1="49.293" y1="62.057" x2="49.293" y2="91.691"/>
</g>
</svg>