<!-- Generator: Adobe Illustrator 22.0.1, SVG Export Plug-In  -->
<svg version="1.1"
	 xmlns="http://www.w3.org/2000/svg" xmlns:xlink="http://www.w3.org/1999/xlink" xmlns:a="http://ns.adobe.com/AdobeSVGViewerExtensions/3.0/"
	 x="0px" y="0px" width="118.32px" height="121.524px" viewBox="0 0 118.32 121.524"
	 style="enable-background:new 0 0 118.32 121.524;" xml:space="preserve">
<style type="text/css">
	.st0{fill:#FFFFFF;}
	.st1{fill:#505659;}
	.st2{fill:#C9B694;stroke:#C9B694;stroke-miterlimit:10;}
	.st3{fill:#C9B694;}
	.st4{fill:none;stroke:#FFFFFF;stroke-width:2;stroke-linecap:round;stroke-linejoin:round;stroke-miterlimit:10;}
	.st5{font-family:'OpenSans';}
	.st6{font-size:13px;}
	.st7{letter-spacing:2;}
	.st8{font-family:'MaisonDeFleurRegular';}
	.st9{font-size:18px;}
</style>
<defs>
</defs>
<g>
	<g>
		<g>
			<path class="st0" d="M31.571,93.424c0,0.939-0.32,1.662-0.962,2.168c-0.641,0.506-1.558,0.758-2.751,0.758h-1.092V100h-1.079
				v-9.28h2.406C30.411,90.72,31.571,91.621,31.571,93.424z M26.766,95.424h0.971c0.957,0,1.648-0.155,2.076-0.464
				s0.641-0.804,0.641-1.485c0-0.613-0.201-1.07-0.603-1.371s-1.028-0.451-1.879-0.451h-1.206V95.424z"/>
			<path class="st1" d="M44.168,95.348c0,1.484-0.375,2.652-1.127,3.504c-0.751,0.85-1.795,1.275-3.132,1.275
				c-1.367,0-2.421-0.418-3.165-1.254c-0.742-0.836-1.114-2.016-1.114-3.539c0-1.51,0.373-2.682,1.117-3.513
				c0.745-0.832,1.803-1.247,3.174-1.247c1.333,0,2.374,0.423,3.123,1.27C43.794,92.689,44.168,93.857,44.168,95.348z
				 M36.773,95.348c0,1.256,0.268,2.21,0.803,2.859c0.535,0.649,1.312,0.975,2.333,0.975c1.028,0,1.805-0.324,2.33-0.972
				s0.787-1.602,0.787-2.862c0-1.249-0.261-2.195-0.784-2.841c-0.522-0.646-1.296-0.968-2.32-0.968c-1.028,0-1.81,0.324-2.345,0.974
				C37.041,93.162,36.773,94.107,36.773,95.348z"/>
			<path class="st1" d="M49.917,96.141V100h-1.079v-9.28h2.545c1.138,0,1.979,0.218,2.523,0.653
				c0.543,0.437,0.815,1.092,0.815,1.969c0,1.227-0.622,2.057-1.866,2.488l2.52,4.17H54.1l-2.247-3.859H49.917z M49.917,95.214
				h1.479c0.762,0,1.32-0.151,1.676-0.454s0.533-0.756,0.533-1.361c0-0.613-0.181-1.056-0.543-1.326
				c-0.361-0.271-0.942-0.406-1.742-0.406h-1.403V95.214z"/>
			<path class="st1" d="M62.33,100h-1.079v-8.322h-2.939V90.72h6.957v0.958H62.33V100z"/>
			<path class="st1" d="M70.345,100h-1.079v-9.28h5.173v0.958h-4.094v3.396h3.847v0.959h-3.847V100z"/>
			<path class="st1" d="M86.63,95.348c0,1.484-0.375,2.652-1.127,3.504c-0.751,0.85-1.795,1.275-3.132,1.275
				c-1.367,0-2.421-0.418-3.165-1.254c-0.742-0.836-1.114-2.016-1.114-3.539c0-1.51,0.373-2.682,1.117-3.513
				c0.745-0.832,1.803-1.247,3.174-1.247c1.333,0,2.374,0.423,3.123,1.27C86.256,92.689,86.63,93.857,86.63,95.348z M79.235,95.348
				c0,1.256,0.268,2.21,0.803,2.859c0.535,0.649,1.312,0.975,2.333,0.975c1.028,0,1.805-0.324,2.33-0.972s0.787-1.602,0.787-2.862
				c0-1.249-0.261-2.195-0.784-2.841c-0.522-0.646-1.296-0.968-2.32-0.968c-1.028,0-1.81,0.324-2.345,0.974
				C79.503,93.162,79.235,94.107,79.235,95.348z"/>
			<path class="st1" d="M91.3,100v-9.28h1.079v8.303h4.094V100H91.3z"/>
			<path class="st1" d="M100.647,100v-9.28h1.079V100H100.647z"/>
			<path class="st1" d="M114.927,95.348c0,1.484-0.375,2.652-1.127,3.504c-0.751,0.85-1.795,1.275-3.132,1.275
				c-1.367,0-2.421-0.418-3.165-1.254c-0.742-0.836-1.114-2.016-1.114-3.539c0-1.51,0.373-2.682,1.117-3.513
				c0.745-0.832,1.803-1.247,3.174-1.247c1.333,0,2.374,0.423,3.123,1.27C114.552,92.689,114.927,93.857,114.927,95.348z
				 M107.532,95.348c0,1.256,0.268,2.21,0.803,2.859c0.535,0.649,1.312,0.975,2.333,0.975c1.028,0,1.805-0.324,2.33-0.972
				s0.787-1.602,0.787-2.862c0-1.249-0.261-2.195-0.784-2.841c-0.522-0.646-1.296-0.968-2.32-0.968c-1.028,0-1.81,0.324-2.345,0.974
				C107.799,93.162,107.532,94.107,107.532,95.348z"/>
		</g>
	</g>
</g>
<g>
	<path class="st2" d="M26.975,97.948c0.06,0.012,0.546,0.035,1.458,0.071c0.132-0.012,0.317-0.018,0.558-0.018s0.432,0,0.576,0
		c0.144,0,0.314-0.012,0.513-0.036c0.198-0.023,0.381-0.054,0.549-0.09c0.156-0.036,0.264-0.06,0.324-0.072
		c0.563-0.168,0.941-0.479,1.134-0.936c0.061-0.156,0.132-0.234,0.216-0.234c0.048,0,0.078,0.033,0.091,0.099
		c0.012,0.066,0,0.147-0.036,0.243c-0.169,0.433-0.463,0.763-0.882,0.99c-0.288,0.168-0.66,0.282-1.116,0.342
		c-0.805,0.12-1.578,0.15-2.322,0.09c-1.224-0.083-2.154-0.174-2.79-0.27c-1.128-0.168-2.316-0.39-3.563-0.666
		c-0.156-0.024-0.246-0.042-0.271-0.054c-0.192-0.072-0.408-0.061-0.648,0.035c-0.684,0.24-1.374,0.433-2.069,0.576
		c-1.021,0.192-1.86,0.223-2.521,0.09c-0.18-0.035-0.336,0.036-0.468,0.217c-1.32,1.859-2.25,3.161-2.79,3.905
		c-1.464,1.992-3.66,4.98-6.588,8.965c-0.168,0.228-0.438,0.563-0.81,1.008c-0.169,0.191-0.354,0.275-0.559,0.252
		c-0.107-0.024-0.174-0.072-0.198-0.145c-0.048-0.096-0.029-0.18,0.055-0.252c0.119-0.084,0.336-0.342,0.647-0.773
		c0.336-0.469,0.915-1.261,1.737-2.376c0.821-1.116,1.455-1.975,1.899-2.574c1.115-1.524,2.052-2.851,2.808-3.979
		c0.072-0.096,0.978-1.434,2.718-4.014c0.132-0.18,0.216-0.306,0.252-0.378c0.061-0.096,0.036-0.168-0.072-0.216
		c-0.06-0.024-0.197-0.084-0.413-0.18c-0.589-0.276-1.104-0.595-1.549-0.954c-0.384-0.312-0.666-0.654-0.846-1.026
		c-0.144-0.324-0.159-0.591-0.045-0.801s0.339-0.345,0.675-0.405c0.336-0.048,0.708-0.036,1.116,0.036
		c0.492,0.084,1.248,0.312,2.268,0.684c0.061,0.013,0.126,0.03,0.198,0.055c0.072,0.023,0.123,0.045,0.153,0.062
		c0.029,0.019,0.065,0.03,0.107,0.036s0.069,0.012,0.081,0.018c0.012,0.007,0.036,0.004,0.072-0.009
		c0.036-0.012,0.057-0.021,0.063-0.026c0.006-0.006,0.026-0.03,0.062-0.072s0.06-0.075,0.072-0.1
		c0.012-0.023,0.039-0.071,0.081-0.144s0.081-0.132,0.117-0.18c1.571-2.568,2.825-4.62,3.762-6.156
		c1.487-2.472,2.922-4.662,4.302-6.57c0.048-0.071,0.138-0.216,0.271-0.432c0.012,0,0.006-0.012-0.019-0.036
		c-0.012-0.012-0.024-0.018-0.036-0.018c-0.096,0.035-0.162,0.065-0.197,0.09c-0.816,0.504-1.423,0.888-1.818,1.151
		c-2.208,1.404-4.608,2.562-7.2,3.475c-2.916,1.032-4.83,1.71-5.742,2.034c-1.008,0.372-1.95,0.744-2.825,1.115
		c-1.849,0.805-3.396,1.915-4.645,3.33C2.188,93.496,1.708,94.3,1.433,95.14c-0.061,0.192-0.12,0.427-0.181,0.702
		c-0.036,0.216,0.042,0.349,0.234,0.396l0.054,0.126c-0.096,0.035-0.15,0.054-0.162,0.054c-0.191-0.012-0.312-0.108-0.359-0.288
		C0.982,95.926,1,95.686,1.072,95.41c0.216-0.816,0.576-1.561,1.08-2.232c0.876-1.176,2.016-2.202,3.42-3.078
		c0.888-0.563,1.901-1.056,3.042-1.476c1.08-0.396,2.952-1.074,5.616-2.034c1.787-0.636,3.138-1.152,4.05-1.548
		c1.944-0.828,3.996-2.01,6.156-3.546c0.155-0.12,0.323-0.249,0.504-0.388c0.18-0.138,0.378-0.29,0.594-0.459
		c0.216-0.168,0.384-0.3,0.504-0.396c0.216-0.168,0.366-0.276,0.45-0.324c0.18-0.107,0.342-0.107,0.486,0
		c0.18,0.133,0.245,0.3,0.197,0.504c-0.048,0.192-0.126,0.385-0.233,0.576c-0.265,0.492-0.486,0.882-0.666,1.17
		c-0.204,0.3-0.709,1.051-1.513,2.25l-1.313,1.962c-0.024,0.048-0.078,0.15-0.162,0.307c0,0.023,0.006,0.035,0.018,0.035
		c0.048,0.024,0.078,0.03,0.091,0.019c0.119-0.096,0.233-0.192,0.342-0.288c0.911-0.828,1.77-1.523,2.574-2.088
		c0.947-0.66,1.854-1.152,2.718-1.477c0.72-0.275,1.344-0.42,1.872-0.432c0.348,0,0.63,0.024,0.846,0.072
		c0.42,0.107,0.759,0.327,1.017,0.657s0.405,0.734,0.441,1.215c0.023,0.432-0.036,0.936-0.18,1.512
		c-0.276,1.092-0.769,2.202-1.477,3.33c-1.104,1.74-2.567,3.318-4.392,4.734c-1.429,1.104-3.066,2.063-4.914,2.88
		c-0.084,0.036-0.198,0.096-0.342,0.18c-0.013,0-0.016,0.012-0.01,0.036c0.007,0.024,0.01,0.042,0.01,0.054
		c0.023,0.024,0.06,0.036,0.107,0.036C23.746,97.534,25.402,97.792,26.975,97.948z M13.654,94.744c-0.013,0-0.198-0.019-0.559-0.055
		c-0.323,0.024-0.492,0.036-0.504,0.036c-0.359,0.072-0.479,0.276-0.359,0.612c0.119,0.336,0.323,0.624,0.611,0.864
		c0.601,0.528,1.314,0.936,2.143,1.224c0.096,0.036,0.162,0.048,0.198,0.036c0.035-0.012,0.083-0.054,0.144-0.126
		c0.336-0.516,0.666-1.014,0.99-1.494c0.071-0.12,0.036-0.204-0.108-0.252C15.19,95.17,14.338,94.888,13.654,94.744z M16.282,97.678
		c0.24,0.048,0.426,0.078,0.558,0.09c0.648-0.023,1.368-0.149,2.16-0.378c0.048-0.012,0.126-0.033,0.234-0.062
		c0.107-0.03,0.191-0.051,0.252-0.063c0.06-0.012,0.132-0.042,0.216-0.09s0.149-0.102,0.198-0.162
		c-0.084-0.036-0.22-0.09-0.405-0.162c-0.187-0.071-0.327-0.126-0.423-0.162c-0.156-0.06-0.372-0.144-0.648-0.252
		c-0.276-0.107-0.462-0.18-0.558-0.216c-0.036-0.012-0.097-0.036-0.18-0.072c-0.085-0.035-0.15-0.06-0.198-0.071
		c-0.12-0.048-0.216-0.019-0.288,0.09c-0.444,0.647-0.666,0.978-0.666,0.99c-0.024,0.023-0.063,0.071-0.117,0.144
		s-0.093,0.135-0.117,0.189C16.276,97.543,16.271,97.605,16.282,97.678z M31.276,83.313c-0.024,0-0.216-0.012-0.576-0.035
		c-0.408,0.06-0.648,0.096-0.72,0.107c-0.66,0.132-1.41,0.426-2.25,0.882c-1.141,0.612-2.467,1.566-3.979,2.862
		c-0.936,0.816-1.8,1.806-2.592,2.97c-0.12,0.181-0.31,0.466-0.567,0.855s-0.453,0.681-0.585,0.873
		c-0.216,0.323-1.002,1.542-2.357,3.653c-0.084,0.12-0.055,0.211,0.09,0.271c0.252,0.084,0.653,0.231,1.206,0.44
		c0.552,0.211,0.978,0.376,1.278,0.495c0.264,0.097,0.533,0.091,0.81-0.018c3.252-1.44,5.952-3.432,8.1-5.977
		c1.128-1.331,1.975-2.705,2.538-4.121c0.229-0.588,0.384-1.146,0.468-1.675c0.036-0.3,0.03-0.563-0.018-0.792
		C32.014,83.662,31.732,83.397,31.276,83.313z"/>
</g>
<g>
	<g>
		<path class="st3" d="M69.951,60c-16.542,0-30-13.458-30-30s13.458-30,30-30s30,13.458,30,30S86.493,60,69.951,60z"/>
	</g>
	<g>
		<rect x="53.499" y="20.481" class="st4" width="32.903" height="24.129"/>
		<polyline class="st4" points="59.937,20.159 59.937,15.39 79.965,15.39 79.965,20.159 		"/>
		<line class="st4" x1="53.499" y1="31.925" x2="86.402" y2="31.925"/>
		<polyline class="st4" points="74.599,32.139 74.599,35.477 65.302,35.477 65.302,32.139 		"/>
	</g>
</g>
</svg>