<!-- Generator: Adobe Illustrator 22.0.1, SVG Export Plug-In  -->
<svg version="1.1"
	 xmlns="http://www.w3.org/2000/svg" xmlns:xlink="http://www.w3.org/1999/xlink" xmlns:a="http://ns.adobe.com/AdobeSVGViewerExtensions/3.0/"
	 x="0px" y="0px" width="80.13px" height="122.395px" viewBox="0 0 80.13 122.395"
	 style="enable-background:new 0 0 80.13 122.395;" xml:space="preserve">
<style type="text/css">
	.st0{fill:#FFFFFF;}
	.st1{fill:#505659;}
	.st2{fill:#C9B694;stroke:#C9B694;stroke-miterlimit:10;}
	.st3{fill:#C9B694;stroke:#C9B694;stroke-width:2;stroke-miterlimit:10;}
	.st4{fill:none;stroke:#FFFFFF;stroke-width:2;stroke-miterlimit:10;}
	.st5{font-family:'OpenSans';}
	.st6{font-size:13px;}
	.st7{letter-spacing:2;}
	.st8{font-family:'MaisonDeFleurRegular';}
	.st9{font-size:18px;}
</style>
<defs>
</defs>
<g>
	<g>
		<g>
			<g>
				<path class="st0" d="M29.324,101l-1.155-2.951h-3.72L23.306,101h-1.092l3.669-9.318h0.908l3.65,9.318H29.324z M27.832,97.077
					l-1.079-2.876c-0.14-0.363-0.284-0.81-0.432-1.339c-0.093,0.406-0.227,0.853-0.4,1.339l-1.092,2.876H27.832z"/>
				<path class="st1" d="M34.317,91.72h2.622c1.231,0,2.122,0.185,2.672,0.552c0.55,0.369,0.825,0.95,0.825,1.746
					c0,0.55-0.153,1.004-0.46,1.361c-0.307,0.357-0.754,0.59-1.342,0.695v0.063c1.409,0.241,2.114,0.981,2.114,2.222
					c0,0.829-0.28,1.477-0.841,1.942c-0.561,0.466-1.345,0.698-2.352,0.698h-3.237V91.72z M35.396,95.693h1.777
					c0.762,0,1.31-0.119,1.644-0.358s0.501-0.643,0.501-1.21c0-0.52-0.186-0.896-0.559-1.126s-0.965-0.347-1.777-0.347h-1.587
					V95.693z M35.396,96.607v3.473h1.936c0.749,0,1.313-0.146,1.691-0.436c0.379-0.29,0.568-0.743,0.568-1.361
					c0-0.575-0.193-0.999-0.581-1.27c-0.387-0.271-0.976-0.406-1.768-0.406H35.396z"/>
				<path class="st1" d="M53.396,96.348c0,1.484-0.375,2.652-1.127,3.504c-0.751,0.85-1.795,1.275-3.132,1.275
					c-1.367,0-2.421-0.418-3.165-1.254c-0.742-0.836-1.114-2.016-1.114-3.539c0-1.51,0.373-2.682,1.117-3.513
					c0.745-0.832,1.803-1.247,3.174-1.247c1.333,0,2.374,0.423,3.123,1.27C53.021,93.689,53.396,94.857,53.396,96.348z M46,96.348
					c0,1.256,0.268,2.21,0.803,2.859c0.535,0.649,1.312,0.975,2.333,0.975c1.028,0,1.805-0.324,2.33-0.972s0.787-1.602,0.787-2.862
					c0-1.249-0.261-2.195-0.784-2.841c-0.522-0.646-1.296-0.968-2.32-0.968c-1.028,0-1.81,0.324-2.345,0.974
					C46.268,94.162,46,95.107,46,96.348z"/>
				<path class="st1" d="M65.072,91.72v6.005c0,1.058-0.319,1.89-0.958,2.494c-0.639,0.605-1.517,0.908-2.634,0.908
					s-1.981-0.305-2.593-0.914c-0.611-0.609-0.917-1.447-0.917-2.514V91.72h1.079v6.056c0,0.774,0.211,1.369,0.635,1.783
					c0.423,0.415,1.045,0.623,1.866,0.623c0.783,0,1.386-0.209,1.809-0.626s0.635-1.015,0.635-1.793V91.72H65.072z"/>
				<path class="st1" d="M72.985,101h-1.079v-8.322h-2.939V91.72h6.957v0.958h-2.939V101z"/>
			</g>
		</g>
	</g>
</g>
<g>
	<path class="st2" d="M34.625,81.27c-0.168,0.24-0.264,0.378-0.287,0.414c-0.061,0.084-0.049,0.18,0.035,0.288
		c0.108,0.12,0.091,0.204-0.054,0.252c-0.288,0.072-0.528,0.27-0.72,0.594c-0.084,0.132-0.207,0.324-0.369,0.576
		s-0.273,0.42-0.333,0.504c-0.312,0.492-0.741,1.167-1.287,2.025c-0.546,0.857-1.044,1.641-1.494,2.349s-0.879,1.38-1.287,2.016
		c-0.888,1.381-2.058,3.414-3.51,6.103c-0.156,0.288-0.219,0.462-0.188,0.521c0.029,0.061,0.207,0.114,0.53,0.162
		c0.948,0.156,2.088,0.288,3.42,0.396c0.552,0.144,0.828,0.246,0.828,0.306c0,0.084-0.048,0.144-0.144,0.18
		c-1.236-0.107-1.944-0.174-2.124-0.197c-0.145-0.012-1.002-0.132-2.574-0.36c-0.096-0.024-0.165-0.024-0.207,0
		s-0.087,0.09-0.135,0.198c-0.696,1.523-1.177,2.586-1.44,3.186c-0.588,1.32-1.014,2.424-1.277,3.312
		c-0.036,0.096-0.085,0.252-0.145,0.468s-0.114,0.384-0.162,0.504c-0.024,0.096-0.071,0.191-0.144,0.288
		c-0.036,0.036-0.084,0.048-0.145,0.036c-0.06-0.024-0.096-0.066-0.107-0.126c-0.024-0.061-0.024-0.133,0-0.216
		c0.132-0.853,0.324-1.614,0.576-2.286c0.432-1.2,1.109-2.814,2.033-4.843c0.097-0.203,0.174-0.371,0.234-0.504
		c0.036-0.096,0.006-0.149-0.09-0.161l-0.828-0.162c-1.296-0.24-2.016-0.372-2.16-0.396c-0.252-0.048-0.411-0.06-0.477-0.036
		c-0.066,0.024-0.178,0.133-0.333,0.324l-1.225,1.476c-1.548,1.824-2.952,3.318-4.212,4.482c-1.644,1.5-3.233,2.729-4.77,3.69
		c-1.068,0.659-2.088,1.127-3.061,1.403c-0.672,0.181-1.266,0.264-1.781,0.252c-1.297-0.023-2.316-0.534-3.061-1.529
		c-0.612-0.805-0.972-1.681-1.08-2.628c-0.384-3.36,0.738-6.103,3.366-8.227c1.152-0.924,2.478-1.512,3.978-1.764
		c0.744-0.132,1.477-0.168,2.196-0.108c1.176,0.084,2.382,0.271,3.618,0.559c0.6,0.144,2.388,0.594,5.364,1.35
		c0.012,0,0.029,0.006,0.054,0.018c0.312,0.12,0.582,0.03,0.81-0.27c2.028-2.676,4.62-5.628,7.776-8.856
		c0.684-0.708,1.806-1.793,3.366-3.258c0.312-0.288,0.798-0.672,1.458-1.151c0.288-0.217,0.504-0.426,0.647-0.631
		c0.12-0.168,0.258-0.342,0.414-0.521c0.084-0.096,0.162-0.174,0.234-0.234c0.096-0.071,0.186-0.078,0.27-0.018
		C34.697,81.065,34.697,81.149,34.625,81.27z M19.722,96.605c0.06-0.084,0.029-0.15-0.09-0.198c-0.024,0-0.114-0.018-0.271-0.054
		l-2.196-0.54c-0.12-0.024-0.555-0.129-1.305-0.315c-0.75-0.186-1.263-0.312-1.539-0.378c-0.276-0.065-0.687-0.152-1.232-0.261
		c-0.547-0.108-1.042-0.198-1.485-0.27c-1.177-0.156-2.148-0.187-2.916-0.091c-1.908,0.265-3.528,1.032-4.86,2.305
		c-1.68,1.632-2.544,3.672-2.592,6.12c-0.012,0.863,0.108,1.638,0.36,2.321c0.144,0.372,0.3,0.708,0.468,1.009
		c0.804,1.355,2.027,1.949,3.672,1.781c0.552-0.06,1.152-0.204,1.8-0.432c0.96-0.349,1.998-0.918,3.114-1.71
		c1.644-1.177,3.24-2.568,4.788-4.176c1.092-1.129,2.484-2.784,4.176-4.969C19.638,96.726,19.673,96.678,19.722,96.605z
		 M31.493,84.978c0.012-0.012,0.066-0.108,0.162-0.288c0-0.012-0.012-0.024-0.036-0.036c-0.012-0.012-0.023-0.018-0.036-0.018
		c-0.191,0.168-0.306,0.27-0.342,0.306c-1.403,1.404-3.228,3.3-5.472,5.688c-1.668,1.8-3.181,3.527-4.536,5.184
		c-0.12,0.156-0.198,0.258-0.234,0.306c-0.012,0.013-0.012,0.033,0,0.063c0.013,0.03,0.024,0.051,0.036,0.062
		c0.061,0.036,0.132,0.061,0.216,0.072l2.772,0.504v-0.018c0.023,0.012,0.06,0.023,0.108,0.036c0.132,0.012,0.216,0.009,0.252-0.01
		c0.035-0.018,0.083-0.087,0.144-0.207c0.012-0.035,0.065-0.155,0.162-0.359c0.443-1.008,1.044-2.179,1.8-3.51
		c0.648-1.128,1.674-2.748,3.078-4.86c0.144-0.216,0.345-0.522,0.604-0.918c0.258-0.396,0.494-0.756,0.711-1.08
		C31.098,85.571,31.302,85.266,31.493,84.978z"/>
</g>
<g>
	<g>
		<path class="st3" d="M49.13,61L49.13,61c-16.569,0-30-13.431-30-30v0c0-16.569,13.431-30,30-30h0c16.569,0,30,13.431,30,30v0
			C79.13,47.569,65.698,61,49.13,61z"/>
		<path class="st4" d="M49.13,35.121L49.13,35.121c-6.355,0-11.506-5.151-11.506-11.506l0,0c0-6.354,5.151-11.506,11.506-11.506h0
			c6.354,0,11.506,5.151,11.506,11.506l0,0C60.636,29.97,55.484,35.121,49.13,35.121z"/>
		<path class="st4" d="M49.13,35.121c-10.472,0-18.961,8.489-18.961,18.961c0,0.056,0.004,0.111,0.004,0.167
			C35.341,58.467,41.939,61,49.13,61h0c7.191,0,13.789-2.533,18.957-6.751c0.001-0.056,0.004-0.111,0.004-0.167
			C68.091,43.61,59.602,35.121,49.13,35.121z"/>
	</g>
</g>
</svg>