<!-- Generator: Adobe Illustrator 22.0.1, SVG Export Plug-In  -->
<svg version="1.1"
	 xmlns="http://www.w3.org/2000/svg" xmlns:xlink="http://www.w3.org/1999/xlink" xmlns:a="http://ns.adobe.com/AdobeSVGViewerExtensions/3.0/"
	 x="0px" y="0px" width="107.906px" height="121.254px" viewBox="0 0 107.906 121.254"
	 style="enable-background:new 0 0 107.906 121.254;" xml:space="preserve">
<style type="text/css">
	.st0{fill:#FFFFFF;}
	.st1{fill:#505659;}
	.st2{fill:#C9B694;stroke:#C9B694;stroke-miterlimit:10;}
	.st3{fill:#C9B694;}
	.st4{fill:none;stroke:#FFFFFF;stroke-width:2;stroke-linecap:round;stroke-linejoin:round;stroke-miterlimit:10;}
	.st5{font-family:'OpenSans';}
	.st6{font-size:13px;}
	.st7{letter-spacing:2;}
	.st8{font-family:'MaisonDeFleurRegular';}
	.st9{font-size:18px;}
</style>
<defs>
</defs>
<g>
	<g>
		<g>
			<path class="st0" d="M36.018,91.551c-1.02,0-1.825,0.34-2.416,1.02c-0.59,0.679-0.885,1.609-0.885,2.789
				c0,1.215,0.285,2.153,0.854,2.815c0.569,0.662,1.38,0.993,2.434,0.993c0.647,0,1.386-0.116,2.215-0.349v0.946
				c-0.643,0.24-1.437,0.361-2.38,0.361c-1.367,0-2.421-0.415-3.165-1.244c-0.742-0.829-1.114-2.008-1.114-3.535
				c0-0.957,0.179-1.795,0.537-2.514c0.357-0.72,0.874-1.274,1.549-1.664c0.675-0.389,1.469-0.584,2.383-0.584
				c0.973,0,1.824,0.178,2.552,0.533l-0.457,0.928C37.422,91.717,36.72,91.551,36.018,91.551z"/>
			<path class="st1" d="M50.9,95.348c0,1.484-0.375,2.652-1.127,3.504c-0.751,0.85-1.795,1.275-3.132,1.275
				c-1.367,0-2.421-0.418-3.165-1.254c-0.742-0.836-1.114-2.016-1.114-3.539c0-1.51,0.373-2.682,1.117-3.513
				c0.745-0.832,1.803-1.247,3.174-1.247c1.333,0,2.374,0.423,3.123,1.27C50.526,92.689,50.9,93.857,50.9,95.348z M43.505,95.348
				c0,1.256,0.268,2.21,0.803,2.859c0.535,0.649,1.312,0.975,2.333,0.975c1.028,0,1.805-0.324,2.33-0.972s0.787-1.602,0.787-2.862
				c0-1.249-0.261-2.195-0.784-2.841c-0.522-0.646-1.296-0.968-2.32-0.968c-1.028,0-1.81,0.324-2.345,0.974
				C43.773,93.162,43.505,94.107,43.505,95.348z"/>
			<path class="st1" d="M62.819,100h-1.231l-5.072-7.789h-0.051c0.068,0.914,0.102,1.752,0.102,2.514V100H55.57v-9.28h1.219
				l5.059,7.757h0.051c-0.008-0.114-0.027-0.481-0.057-1.102s-0.04-1.062-0.032-1.33V90.72h1.009V100z"/>
			<path class="st1" d="M70.827,100h-1.079v-8.322h-2.939V90.72h6.957v0.958h-2.939V100z"/>
			<path class="st1" d="M83.596,100l-1.155-2.951h-3.72L77.578,100h-1.092l3.669-9.318h0.908l3.65,9.318H83.596z M82.104,96.077
				l-1.079-2.876c-0.14-0.363-0.284-0.81-0.432-1.339c-0.093,0.406-0.227,0.853-0.4,1.339l-1.092,2.876H82.104z"/>
			<path class="st1" d="M92.562,91.551c-1.02,0-1.825,0.34-2.416,1.02c-0.59,0.679-0.885,1.609-0.885,2.789
				c0,1.215,0.285,2.153,0.854,2.815c0.569,0.662,1.38,0.993,2.434,0.993c0.647,0,1.386-0.116,2.215-0.349v0.946
				c-0.643,0.24-1.437,0.361-2.38,0.361c-1.367,0-2.421-0.415-3.165-1.244c-0.742-0.829-1.114-2.008-1.114-3.535
				c0-0.957,0.179-1.795,0.537-2.514c0.357-0.72,0.874-1.274,1.549-1.664c0.675-0.389,1.469-0.584,2.383-0.584
				c0.973,0,1.824,0.178,2.552,0.533l-0.457,0.928C93.967,91.717,93.265,91.551,92.562,91.551z"/>
			<path class="st1" d="M102.247,100h-1.079v-8.322h-2.939V90.72h6.957v0.958h-2.939V100z"/>
		</g>
	</g>
</g>
<g>
	<path class="st2" d="M20.875,87.921c0.072,0,0.576-0.023,1.512-0.071c1.729,0.048,2.658,0.078,2.79,0.09
		c0.288,0.012,0.564-0.072,0.828-0.252c2.148-1.404,4.458-2.532,6.931-3.384c1.38-0.48,2.855-0.727,4.428-0.738
		c0.312,0,0.63,0.036,0.954,0.107c0.264,0.061,0.504,0.162,0.72,0.307c0.312,0.204,0.498,0.45,0.558,0.738
		c0.061,0.287-0.012,0.588-0.216,0.899c-0.132,0.204-0.317,0.42-0.558,0.648c-0.3,0.264-0.708,0.528-1.225,0.792
		c-0.852,0.42-1.926,0.756-3.222,1.008c-1.392,0.264-3.149,0.39-5.273,0.378c-0.732-0.012-1.356-0.024-1.872-0.036
		c-0.229,0-0.438,0.061-0.63,0.18c-1.933,1.32-3.553,2.664-4.86,4.032c-1.021,1.08-1.89,2.28-2.61,3.601
		c-0.624,1.128-1.044,2.25-1.26,3.365c-0.216,1.164-0.198,2.208,0.054,3.133c0.108,0.384,0.258,0.726,0.45,1.025
		c0.492,0.828,1.278,1.362,2.358,1.603c1.031,0.216,2.13,0.197,3.294-0.055c0.899-0.191,1.943-0.569,3.132-1.134
		c1.188-0.552,2.478-1.254,3.87-2.105c1.991-1.213,4.518-2.839,7.578-4.879c0.119-0.083,0.284-0.206,0.495-0.368
		c0.209-0.162,0.333-0.255,0.368-0.279c0.084-0.06,0.162-0.108,0.234-0.145c0.036-0.012,0.072,0,0.108,0.036
		c0.035,0.036,0.048,0.066,0.035,0.091c-0.06,0.119-0.113,0.197-0.161,0.233c-0.576,0.48-0.954,0.78-1.135,0.9
		c-1.14,0.779-2.159,1.464-3.06,2.052c-1.656,1.068-3.24,2.076-4.752,3.024c-1.536,0.959-2.977,1.739-4.32,2.34
		c-1.02,0.443-1.962,0.75-2.826,0.918c-1.248,0.228-2.388,0.204-3.42-0.072c-1.428-0.384-2.412-1.26-2.952-2.628
		c-0.252-0.612-0.396-1.272-0.432-1.98c-0.061-1.355,0.186-2.748,0.738-4.176c0.792-2.027,2.016-3.888,3.672-5.58
		c0.912-0.911,2.016-1.848,3.312-2.808c0.097-0.072,0.198-0.156,0.307-0.252c-0.013-0.061-0.024-0.09-0.036-0.09
		c-0.12-0.024-0.21-0.036-0.271-0.036c-0.876-0.012-1.481-0.015-1.817-0.009s-0.937,0.021-1.8,0.045
		c-3.564,0.132-6.702,0.594-9.414,1.386c-2.437,0.696-4.692,1.704-6.769,3.024c-1.128,0.72-2.04,1.5-2.735,2.34
		c-0.192,0.24-0.36,0.468-0.505,0.684c-0.191,0.3-0.252,0.546-0.18,0.738c0,0.012-0.009,0.026-0.027,0.045
		c-0.018,0.018-0.033,0.027-0.045,0.027c-0.084,0-0.132-0.019-0.144-0.055c-0.061-0.144-0.084-0.245-0.072-0.306
		c0.061-0.252,0.132-0.444,0.216-0.576c0.3-0.468,0.57-0.852,0.811-1.152c0.468-0.552,1.08-1.104,1.836-1.655
		c1.62-1.176,3.51-2.179,5.67-3.006c1.572-0.601,3.318-1.062,5.238-1.387C16.849,88.149,18.883,87.957,20.875,87.921z
		 M27.805,88.047c0.288,0,0.702,0.01,1.242,0.027c0.54,0.019,0.895,0.027,1.062,0.027v-0.019h1.188
		c1.404-0.023,2.73-0.18,3.979-0.468c0.947-0.228,1.77-0.534,2.466-0.918c0.504-0.275,0.876-0.563,1.116-0.864
		c0.144-0.168,0.252-0.342,0.323-0.521c0.181-0.384,0.078-0.685-0.306-0.9c-0.18-0.096-0.318-0.149-0.414-0.162
		c-0.444-0.06-0.762-0.084-0.954-0.071c-1.476,0.096-2.886,0.401-4.229,0.918c-1.632,0.611-3.433,1.506-5.4,2.682
		c-0.048,0.024-0.096,0.054-0.144,0.09c-0.024,0.024-0.042,0.054-0.055,0.09C27.679,88.018,27.721,88.047,27.805,88.047z"/>
</g>
<g>
	<g>
		<path class="st3" d="M67.818,60c-16.542,0-30-13.458-30-30s13.458-30,30-30s30,13.458,30,30S84.36,60,67.818,60z"/>
	</g>
	<g>
		<polygon class="st4" points="84.269,36.439 84.269,41.471 51.366,41.471 51.366,18.529 84.269,18.529 		"/>
		<line class="st4" x1="64.682" y1="32.186" x2="51.366" y2="41.471"/>
		<line class="st4" x1="70.753" y1="32.046" x2="83.717" y2="41.085"/>
		<path class="st4" d="M84.269,18.529L70.351,32.448c-1.399,1.399-3.667,1.399-5.066,0L51.366,18.529"/>
	</g>
</g>
</svg>